G04*
G04 #@! TF.GenerationSoftware,Altium Limited,Altium Designer,26.1.1 (7)*
G04*
G04 Layer_Color=8388736*
%FSLAX25Y25*%
%MOIN*%
G70*
G04*
G04 #@! TF.SameCoordinates,CD37B294-F107-4AD9-A554-E696D81969F0*
G04*
G04*
G04 #@! TF.FilePolarity,Negative*
G04*
G01*
G75*
G04:AMPARAMS|DCode=16|XSize=30mil|YSize=60mil|CornerRadius=7.5mil|HoleSize=0mil|Usage=FLASHONLY|Rotation=270.000|XOffset=0mil|YOffset=0mil|HoleType=Round|Shape=RoundedRectangle|*
%AMROUNDEDRECTD16*
21,1,0.03000,0.04500,0,0,270.0*
21,1,0.01500,0.06000,0,0,270.0*
1,1,0.01500,-0.02250,-0.00750*
1,1,0.01500,-0.02250,0.00750*
1,1,0.01500,0.02250,0.00750*
1,1,0.01500,0.02250,-0.00750*
%
%ADD16ROUNDEDRECTD16*%
%ADD17C,0.03937*%
%ADD18R,0.03937X0.03937*%
%ADD19C,0.10643*%
%ADD20C,0.13800*%
%ADD21R,0.06737X0.06737*%
%ADD22C,0.06737*%
G04:AMPARAMS|DCode=23|XSize=74mil|YSize=74mil|CornerRadius=0mil|HoleSize=0mil|Usage=FLASHONLY|Rotation=180.000|XOffset=0mil|YOffset=0mil|HoleType=Round|Shape=Octagon|*
%AMOCTAGOND23*
4,1,8,-0.03700,0.01850,-0.03700,-0.01850,-0.01850,-0.03700,0.01850,-0.03700,0.03700,-0.01850,0.03700,0.01850,0.01850,0.03700,-0.01850,0.03700,-0.03700,0.01850,0.0*
%
%ADD23OCTAGOND23*%

%ADD24C,0.07099*%
%ADD25R,0.08900X0.08900*%
%ADD26C,0.07119*%
%ADD27C,0.06800*%
%ADD28C,0.05200*%
G04:AMPARAMS|DCode=29|XSize=70.99mil|YSize=70.99mil|CornerRadius=19.75mil|HoleSize=0mil|Usage=FLASHONLY|Rotation=0.000|XOffset=0mil|YOffset=0mil|HoleType=Round|Shape=RoundedRectangle|*
%AMROUNDEDRECTD29*
21,1,0.07099,0.03150,0,0,0.0*
21,1,0.03150,0.07099,0,0,0.0*
1,1,0.03950,0.01575,-0.01575*
1,1,0.03950,-0.01575,-0.01575*
1,1,0.03950,-0.01575,0.01575*
1,1,0.03950,0.01575,0.01575*
%
%ADD29ROUNDEDRECTD29*%
G04:AMPARAMS|DCode=30|XSize=70.99mil|YSize=70.99mil|CornerRadius=19.75mil|HoleSize=0mil|Usage=FLASHONLY|Rotation=270.000|XOffset=0mil|YOffset=0mil|HoleType=Round|Shape=RoundedRectangle|*
%AMROUNDEDRECTD30*
21,1,0.07099,0.03150,0,0,270.0*
21,1,0.03150,0.07099,0,0,270.0*
1,1,0.03950,-0.01575,-0.01575*
1,1,0.03950,-0.01575,0.01575*
1,1,0.03950,0.01575,0.01575*
1,1,0.03950,0.01575,-0.01575*
%
%ADD30ROUNDEDRECTD30*%
%ADD31C,0.08900*%
%ADD32R,0.07119X0.07119*%
G36*
X183250Y24250D02*
X176750D01*
Y35750D01*
X183250D01*
Y24250D01*
D02*
G37*
G36*
X301319Y28150D02*
Y21850D01*
X295807D01*
Y28150D01*
X301319D01*
D02*
G37*
G36*
X309193D02*
Y21850D01*
X303681D01*
Y28150D01*
X309193D01*
D02*
G37*
G36*
X434250Y55750D02*
X440750D01*
Y44250D01*
X434250D01*
Y55750D01*
D02*
G37*
D16*
X437500Y46000D02*
D03*
X180000Y26000D02*
D03*
X437500Y54000D02*
D03*
X180000Y34000D02*
D03*
D17*
X440000Y119843D02*
D03*
Y114921D02*
D03*
Y110000D02*
D03*
Y105079D02*
D03*
Y100157D02*
D03*
Y95236D02*
D03*
Y90315D02*
D03*
Y85394D02*
D03*
Y80472D02*
D03*
D18*
Y75551D02*
D03*
D19*
X35940Y103900D02*
D03*
X188300Y103850D02*
D03*
D20*
X442500Y257500D02*
D03*
Y12500D02*
D03*
X12500Y257500D02*
D03*
Y12500D02*
D03*
D21*
X342205Y248858D02*
D03*
X377205D02*
D03*
D22*
X367795D02*
D03*
X342205Y231142D02*
D03*
X367795D02*
D03*
X402795D02*
D03*
X377205D02*
D03*
X402795Y248858D02*
D03*
D23*
X282500Y25000D02*
D03*
X322500D02*
D03*
D24*
X302500Y45000D02*
D03*
X282500D02*
D03*
X240000Y125000D02*
D03*
X210000Y200000D02*
D03*
X272500Y45000D02*
D03*
Y25000D02*
D03*
X290000Y125000D02*
D03*
X210000Y190000D02*
D03*
Y180000D02*
D03*
X300000Y125000D02*
D03*
X280000D02*
D03*
X232500Y25000D02*
D03*
X262500Y45000D02*
D03*
X242500D02*
D03*
X252500D02*
D03*
X292500D02*
D03*
X270000Y125000D02*
D03*
X250000D02*
D03*
X260000D02*
D03*
D25*
X145000Y21900D02*
D03*
D26*
X400000Y95000D02*
D03*
Y105000D02*
D03*
Y125000D02*
D03*
Y55000D02*
D03*
X340000Y75000D02*
D03*
X400000Y45000D02*
D03*
Y135000D02*
D03*
X340000Y55000D02*
D03*
X400000Y75000D02*
D03*
Y65000D02*
D03*
Y85000D02*
D03*
Y145000D02*
D03*
X340000Y35000D02*
D03*
Y45000D02*
D03*
Y65000D02*
D03*
Y85000D02*
D03*
Y95000D02*
D03*
Y105000D02*
D03*
Y115000D02*
D03*
Y125000D02*
D03*
Y135000D02*
D03*
Y145000D02*
D03*
X400000Y115000D02*
D03*
Y35000D02*
D03*
D27*
X215000Y130000D02*
D03*
Y260000D02*
D03*
X315000D02*
D03*
Y130000D02*
D03*
X220000Y45000D02*
D03*
X315000D02*
D03*
Y100000D02*
D03*
X220000D02*
D03*
D28*
X92126Y45000D02*
D03*
X100000D02*
D03*
D29*
X230000Y125000D02*
D03*
X232500Y45000D02*
D03*
D30*
X210000Y210000D02*
D03*
D31*
X145000Y40000D02*
D03*
D32*
X340000Y155000D02*
D03*
X400000D02*
D03*
M02*
