M48
;Layer_Color=9474304
;FILE_FORMAT=2:3
INCH,LZ
;TYPE=PLATED
T01F00S00C0.020
T02F00S00C0.032
T03F00S00C0.039
T04F00S00C0.042
T05F00S00C0.043
T06F00S00C0.069
T07F00S00C0.100
T08F00S00C0.135
;TYPE=NON_PLATED
T09F00S00C0.098
T10F00S00C0.130
%
T01
X044Y00756
Y00805
Y00854
Y00903
Y00952
Y01002
Y01051
Y011
Y01149
Y01198
T02
X00921Y0045
X01
X02825Y0025
X03225
T03
X03422Y02311
Y02489
X03678
X03772
Y02311
X03678
X04028
Y02489
T04
X034Y0035
Y0045
Y0055
Y0065
Y0075
Y0085
Y0095
Y0105
Y0115
Y0125
Y0135
Y0145
Y0155
X04
Y0145
Y0135
Y0125
Y0115
Y0105
Y0095
Y0085
Y0075
Y0065
Y0055
Y0045
Y0035
T05
X02325Y0025
Y0045
X02425
X02525
X02625
X02725
X02825
X02925
X03025
X02725Y0025
X027Y0125
X028
X029
X03
X026
X025
X024
X023
X021Y018
Y019
Y02
Y021
T06
X0145Y00219
Y004
T07
X022Y0045
Y01
X0315
Y0045
T08
X0215Y013
X0315
Y026
X0215
T09
X00359Y01039
X01883Y01038
T10
X00125Y00125
X04425
Y02575
X00125
M30
