G04*
G04 #@! TF.GenerationSoftware,Altium Limited,Altium Designer,26.1.1 (7)*
G04*
G04 Layer_Physical_Order=2*
G04 Layer_Color=16711680*
%FSLAX25Y25*%
%MOIN*%
G70*
G04*
G04 #@! TF.SameCoordinates,CD37B294-F107-4AD9-A554-E696D81969F0*
G04*
G04*
G04 #@! TF.FilePolarity,Positive*
G04*
G01*
G75*
%ADD15C,0.01000*%
%ADD17C,0.03937*%
%ADD18R,0.03937X0.03937*%
%ADD25R,0.08900X0.08900*%
%ADD28C,0.05200*%
%ADD31C,0.08900*%
%ADD33C,0.09843*%
%ADD34C,0.13000*%
%ADD35R,0.05937X0.05937*%
%ADD36C,0.05937*%
G04:AMPARAMS|DCode=37|XSize=66mil|YSize=66mil|CornerRadius=0mil|HoleSize=0mil|Usage=FLASHONLY|Rotation=180.000|XOffset=0mil|YOffset=0mil|HoleType=Round|Shape=Octagon|*
%AMOCTAGOND37*
4,1,8,-0.03300,0.01650,-0.03300,-0.01650,-0.01650,-0.03300,0.01650,-0.03300,0.03300,-0.01650,0.03300,0.01650,0.01650,0.03300,-0.01650,0.03300,-0.03300,0.01650,0.0*
%
%ADD37OCTAGOND37*%

%ADD38C,0.06299*%
%ADD39C,0.06319*%
%ADD40C,0.06000*%
G04:AMPARAMS|DCode=41|XSize=62.99mil|YSize=62.99mil|CornerRadius=15.75mil|HoleSize=0mil|Usage=FLASHONLY|Rotation=0.000|XOffset=0mil|YOffset=0mil|HoleType=Round|Shape=RoundedRectangle|*
%AMROUNDEDRECTD41*
21,1,0.06299,0.03150,0,0,0.0*
21,1,0.03150,0.06299,0,0,0.0*
1,1,0.03150,0.01575,-0.01575*
1,1,0.03150,-0.01575,-0.01575*
1,1,0.03150,-0.01575,0.01575*
1,1,0.03150,0.01575,0.01575*
%
%ADD41ROUNDEDRECTD41*%
G04:AMPARAMS|DCode=42|XSize=62.99mil|YSize=62.99mil|CornerRadius=15.75mil|HoleSize=0mil|Usage=FLASHONLY|Rotation=270.000|XOffset=0mil|YOffset=0mil|HoleType=Round|Shape=RoundedRectangle|*
%AMROUNDEDRECTD42*
21,1,0.06299,0.03150,0,0,270.0*
21,1,0.03150,0.06299,0,0,270.0*
1,1,0.03150,-0.01575,-0.01575*
1,1,0.03150,-0.01575,0.01575*
1,1,0.03150,0.01575,0.01575*
1,1,0.03150,0.01575,-0.01575*
%
%ADD42ROUNDEDRECTD42*%
%ADD43R,0.06319X0.06319*%
G36*
X443989Y265305D02*
X443914Y264724D01*
X443889Y264699D01*
X442500Y264835D01*
X441069Y264694D01*
X439693Y264277D01*
X438425Y263599D01*
X437313Y262687D01*
X436401Y261575D01*
X435723Y260307D01*
X435306Y258931D01*
X435165Y257500D01*
X435306Y256069D01*
X435723Y254693D01*
X436401Y253425D01*
X437313Y252313D01*
X438425Y251401D01*
X439693Y250723D01*
X441069Y250306D01*
X442500Y250165D01*
X443931Y250306D01*
X445307Y250723D01*
X446575Y251401D01*
X447687Y252313D01*
X448599Y253425D01*
X449277Y254693D01*
X449694Y256069D01*
X449835Y257500D01*
X449698Y258889D01*
X449724Y258914D01*
X450305Y258989D01*
X450965Y258329D01*
Y11671D01*
X450305Y11011D01*
X449724Y11086D01*
X449698Y11111D01*
X449835Y12500D01*
X449694Y13931D01*
X449277Y15307D01*
X448599Y16575D01*
X447687Y17687D01*
X446575Y18599D01*
X445307Y19277D01*
X443931Y19694D01*
X442500Y19835D01*
X441069Y19694D01*
X439693Y19277D01*
X438425Y18599D01*
X437313Y17687D01*
X436401Y16575D01*
X435723Y15307D01*
X435306Y13931D01*
X435165Y12500D01*
X435306Y11069D01*
X435723Y9693D01*
X436401Y8425D01*
X437313Y7313D01*
X438425Y6401D01*
X439693Y5723D01*
X441069Y5306D01*
X442500Y5165D01*
X443889Y5302D01*
X443914Y5276D01*
X443989Y4695D01*
X443329Y4034D01*
X11671D01*
X11011Y4695D01*
X11086Y5276D01*
X11111Y5302D01*
X12500Y5165D01*
X13931Y5306D01*
X15307Y5723D01*
X16575Y6401D01*
X17687Y7313D01*
X18599Y8425D01*
X19277Y9693D01*
X19694Y11069D01*
X19835Y12500D01*
X19694Y13931D01*
X19277Y15307D01*
X18599Y16575D01*
X17687Y17687D01*
X16575Y18599D01*
X15307Y19277D01*
X13931Y19694D01*
X12500Y19835D01*
X11069Y19694D01*
X9693Y19277D01*
X8425Y18599D01*
X7313Y17687D01*
X6401Y16575D01*
X5723Y15307D01*
X5306Y13931D01*
X5165Y12500D01*
X5302Y11111D01*
X5276Y11086D01*
X4695Y11011D01*
X4034Y11671D01*
Y258329D01*
X4695Y258989D01*
X5276Y258914D01*
X5302Y258889D01*
X5165Y257500D01*
X5306Y256069D01*
X5723Y254693D01*
X6401Y253425D01*
X7313Y252313D01*
X8425Y251401D01*
X9693Y250723D01*
X11069Y250306D01*
X12500Y250165D01*
X13931Y250306D01*
X15307Y250723D01*
X16575Y251401D01*
X17687Y252313D01*
X18599Y253425D01*
X19277Y254693D01*
X19694Y256069D01*
X19835Y257500D01*
X19694Y258931D01*
X19277Y260307D01*
X18599Y261575D01*
X17687Y262687D01*
X16575Y263599D01*
X15307Y264277D01*
X13931Y264694D01*
X12500Y264835D01*
X11111Y264699D01*
X11086Y264724D01*
X11011Y265305D01*
X11671Y265966D01*
X209626D01*
X209794Y265495D01*
X209635Y265365D01*
X208692Y264215D01*
X207991Y262903D01*
X207559Y261480D01*
X207414Y260000D01*
X207559Y258520D01*
X207991Y257097D01*
X208692Y255785D01*
X209635Y254636D01*
X210785Y253692D01*
X212097Y252991D01*
X213520Y252559D01*
X215000Y252414D01*
X216480Y252559D01*
X217903Y252991D01*
X219215Y253692D01*
X220364Y254636D01*
X221308Y255785D01*
X222009Y257097D01*
X222441Y258520D01*
X222586Y260000D01*
X222441Y261480D01*
X222009Y262903D01*
X221308Y264215D01*
X220364Y265365D01*
X220206Y265495D01*
X220374Y265966D01*
X309626D01*
X309794Y265495D01*
X309635Y265365D01*
X308692Y264215D01*
X307991Y262903D01*
X307559Y261480D01*
X307414Y260000D01*
X307559Y258520D01*
X307991Y257097D01*
X308692Y255785D01*
X309635Y254636D01*
X310785Y253692D01*
X312097Y252991D01*
X313520Y252559D01*
X315000Y252414D01*
X316480Y252559D01*
X317903Y252991D01*
X319215Y253692D01*
X320364Y254636D01*
X321308Y255785D01*
X322009Y257097D01*
X322441Y258520D01*
X322586Y260000D01*
X322441Y261480D01*
X322009Y262903D01*
X321308Y264215D01*
X320364Y265365D01*
X320206Y265495D01*
X320374Y265966D01*
X443329D01*
X443989Y265305D01*
D02*
G37*
%LPC*%
G36*
X380973Y252627D02*
X373436D01*
Y245090D01*
X380973D01*
Y252627D01*
D02*
G37*
G36*
X345973D02*
X338436D01*
Y245090D01*
X345973D01*
Y252627D01*
D02*
G37*
G36*
X402795Y252659D02*
X401811Y252530D01*
X400895Y252150D01*
X400107Y251546D01*
X399503Y250759D01*
X399124Y249842D01*
X398994Y248858D01*
X399124Y247874D01*
X399503Y246958D01*
X400107Y246170D01*
X400895Y245566D01*
X401811Y245187D01*
X402795Y245057D01*
X403779Y245187D01*
X404696Y245566D01*
X405483Y246170D01*
X406087Y246958D01*
X406467Y247874D01*
X406596Y248858D01*
X406467Y249842D01*
X406087Y250759D01*
X405483Y251546D01*
X404696Y252150D01*
X403779Y252530D01*
X402795Y252659D01*
D02*
G37*
G36*
X367795D02*
X366811Y252530D01*
X365895Y252150D01*
X365107Y251546D01*
X364503Y250759D01*
X364124Y249842D01*
X363994Y248858D01*
X364124Y247874D01*
X364503Y246958D01*
X365107Y246170D01*
X365895Y245566D01*
X366811Y245187D01*
X367795Y245057D01*
X368779Y245187D01*
X369696Y245566D01*
X370483Y246170D01*
X371087Y246958D01*
X371467Y247874D01*
X371596Y248858D01*
X371467Y249842D01*
X371087Y250759D01*
X370483Y251546D01*
X369696Y252150D01*
X368779Y252530D01*
X367795Y252659D01*
D02*
G37*
G36*
X402795Y234943D02*
X401811Y234813D01*
X400895Y234434D01*
X400107Y233829D01*
X399503Y233042D01*
X399265Y232467D01*
X380735D01*
X380497Y233042D01*
X379892Y233829D01*
X379105Y234434D01*
X378189Y234813D01*
X377205Y234943D01*
X376221Y234813D01*
X375304Y234434D01*
X374517Y233829D01*
X373913Y233042D01*
X373533Y232126D01*
X373404Y231142D01*
X373533Y230158D01*
X373913Y229241D01*
X374517Y228454D01*
X375304Y227850D01*
X376221Y227470D01*
X377205Y227341D01*
X378189Y227470D01*
X379105Y227850D01*
X379892Y228454D01*
X380497Y229241D01*
X380735Y229816D01*
X399265D01*
X399503Y229241D01*
X400107Y228454D01*
X400895Y227850D01*
X401811Y227470D01*
X402795Y227341D01*
X403779Y227470D01*
X404354Y227709D01*
X408674Y223388D01*
Y155549D01*
X404459Y151334D01*
X403960Y151541D01*
Y158959D01*
X401326D01*
Y198937D01*
X401225Y199444D01*
X400937Y199874D01*
X371229Y229583D01*
X371467Y230158D01*
X371596Y231142D01*
X371467Y232126D01*
X371087Y233042D01*
X370483Y233829D01*
X369696Y234434D01*
X368779Y234813D01*
X367795Y234943D01*
X366811Y234813D01*
X365895Y234434D01*
X365107Y233829D01*
X364503Y233042D01*
X364265Y232467D01*
X345735D01*
X345497Y233042D01*
X344893Y233829D01*
X344105Y234434D01*
X343189Y234813D01*
X342205Y234943D01*
X341221Y234813D01*
X340304Y234434D01*
X339517Y233829D01*
X338913Y233042D01*
X338533Y232126D01*
X338404Y231142D01*
X338533Y230158D01*
X338913Y229241D01*
X339517Y228454D01*
X340304Y227850D01*
X341221Y227470D01*
X342205Y227341D01*
X343189Y227470D01*
X344105Y227850D01*
X344893Y228454D01*
X345497Y229241D01*
X345735Y229816D01*
X364265D01*
X364503Y229241D01*
X365107Y228454D01*
X365895Y227850D01*
X366811Y227470D01*
X367795Y227341D01*
X368779Y227470D01*
X369354Y227709D01*
X398675Y198388D01*
Y158959D01*
X396041D01*
Y151041D01*
X403459D01*
X403666Y150541D01*
X401705Y148580D01*
X401034Y148857D01*
X400000Y148994D01*
X398966Y148857D01*
X398003Y148459D01*
X397176Y147824D01*
X396541Y146997D01*
X396143Y146034D01*
X396006Y145000D01*
X396143Y143966D01*
X396541Y143003D01*
X397176Y142176D01*
X398003Y141541D01*
X398966Y141142D01*
X400000Y141006D01*
X401034Y141142D01*
X401997Y141541D01*
X402824Y142176D01*
X403459Y143003D01*
X403858Y143966D01*
X403994Y145000D01*
X403858Y146034D01*
X403580Y146705D01*
X410937Y154063D01*
X411225Y154493D01*
X411326Y155000D01*
Y223937D01*
X411225Y224444D01*
X410937Y224874D01*
X406228Y229583D01*
X406467Y230158D01*
X406596Y231142D01*
X406467Y232126D01*
X406087Y233042D01*
X405483Y233829D01*
X404696Y234434D01*
X403779Y234813D01*
X402795Y234943D01*
D02*
G37*
G36*
X211575Y213996D02*
X208425D01*
X207499Y213812D01*
X206713Y213287D01*
X206188Y212501D01*
X206004Y211575D01*
Y208425D01*
X206188Y207499D01*
X206713Y206713D01*
X207499Y206188D01*
X208425Y206004D01*
X211575D01*
X212501Y206188D01*
X213287Y206713D01*
X213812Y207499D01*
X213996Y208425D01*
Y211575D01*
X213812Y212501D01*
X213287Y213287D01*
X212501Y213812D01*
X211575Y213996D01*
D02*
G37*
G36*
X210000Y203984D02*
X208969Y203848D01*
X208008Y203450D01*
X207183Y202817D01*
X206550Y201992D01*
X206152Y201031D01*
X206016Y200000D01*
X206152Y198969D01*
X206428Y198303D01*
X199063Y190937D01*
X198775Y190507D01*
X198674Y190000D01*
Y165000D01*
X198775Y164493D01*
X199063Y164063D01*
X236428Y126697D01*
X236152Y126031D01*
X236016Y125000D01*
X236152Y123969D01*
X236550Y123008D01*
X237183Y122183D01*
X238008Y121550D01*
X238969Y121152D01*
X240000Y121016D01*
X241031Y121152D01*
X241697Y121428D01*
X289063Y74063D01*
X289493Y73775D01*
X290000Y73674D01*
X336263D01*
X336541Y73003D01*
X337176Y72176D01*
X338003Y71541D01*
X338966Y71143D01*
X340000Y71006D01*
X341034Y71143D01*
X341997Y71541D01*
X342824Y72176D01*
X343459Y73003D01*
X343858Y73966D01*
X343994Y75000D01*
X343858Y76034D01*
X343459Y76997D01*
X342824Y77824D01*
X341997Y78459D01*
X341034Y78857D01*
X340000Y78994D01*
X338966Y78857D01*
X338003Y78459D01*
X337176Y77824D01*
X336541Y76997D01*
X336263Y76326D01*
X290549D01*
X243572Y123303D01*
X243848Y123969D01*
X243984Y125000D01*
X243848Y126031D01*
X243450Y126992D01*
X242817Y127817D01*
X241992Y128450D01*
X241031Y128848D01*
X240000Y128984D01*
X238969Y128848D01*
X238303Y128572D01*
X201325Y165549D01*
Y189451D01*
X208303Y196428D01*
X208969Y196152D01*
X210000Y196016D01*
X211031Y196152D01*
X211992Y196550D01*
X212817Y197183D01*
X213450Y198008D01*
X213848Y198969D01*
X213984Y200000D01*
X213848Y201031D01*
X213450Y201992D01*
X212817Y202817D01*
X211992Y203450D01*
X211031Y203848D01*
X210000Y203984D01*
D02*
G37*
G36*
Y193984D02*
X208969Y193848D01*
X208008Y193450D01*
X207183Y192817D01*
X206550Y191992D01*
X206152Y191031D01*
X206016Y190000D01*
X206152Y188969D01*
X206550Y188008D01*
X207183Y187183D01*
X208008Y186550D01*
X208969Y186152D01*
X210000Y186016D01*
X211031Y186152D01*
X211992Y186550D01*
X212817Y187183D01*
X213450Y188008D01*
X213848Y188969D01*
X213984Y190000D01*
X213848Y191031D01*
X213450Y191992D01*
X212817Y192817D01*
X211992Y193450D01*
X211031Y193848D01*
X210000Y193984D01*
D02*
G37*
G36*
Y183984D02*
X208969Y183848D01*
X208008Y183450D01*
X207183Y182817D01*
X206550Y181992D01*
X206152Y181031D01*
X206016Y180000D01*
X206152Y178969D01*
X206550Y178008D01*
X207183Y177183D01*
X208008Y176550D01*
X208969Y176152D01*
X210000Y176016D01*
X211031Y176152D01*
X211992Y176550D01*
X212817Y177183D01*
X213450Y178008D01*
X213726Y178674D01*
X322891D01*
X342144Y159421D01*
X341953Y158959D01*
X336040D01*
Y151041D01*
X343334D01*
Y147937D01*
X342861Y147776D01*
X342824Y147824D01*
X341997Y148459D01*
X341034Y148857D01*
X340000Y148994D01*
X338966Y148857D01*
X338003Y148459D01*
X337176Y147824D01*
X336541Y146997D01*
X336142Y146034D01*
X336006Y145000D01*
X336142Y143966D01*
X336541Y143003D01*
X337176Y142176D01*
X338003Y141541D01*
X338966Y141142D01*
X340000Y141006D01*
X341034Y141142D01*
X341997Y141541D01*
X342824Y142176D01*
X342861Y142224D01*
X343334Y142063D01*
Y137937D01*
X342861Y137776D01*
X342824Y137824D01*
X341997Y138459D01*
X341034Y138857D01*
X340000Y138994D01*
X338966Y138857D01*
X338003Y138459D01*
X337176Y137824D01*
X336541Y136997D01*
X336142Y136034D01*
X336006Y135000D01*
X336142Y133966D01*
X336541Y133003D01*
X337176Y132176D01*
X338003Y131541D01*
X338966Y131142D01*
X340000Y131006D01*
X341034Y131142D01*
X341997Y131541D01*
X342824Y132176D01*
X342861Y132224D01*
X343334Y132063D01*
Y127937D01*
X342861Y127776D01*
X342824Y127824D01*
X341997Y128459D01*
X341034Y128858D01*
X340000Y128994D01*
X338966Y128858D01*
X338003Y128459D01*
X337176Y127824D01*
X336541Y126997D01*
X336142Y126034D01*
X336006Y125000D01*
X336142Y123966D01*
X336541Y123003D01*
X337176Y122176D01*
X338003Y121541D01*
X338966Y121142D01*
X340000Y121006D01*
X341034Y121142D01*
X341997Y121541D01*
X342824Y122176D01*
X342861Y122224D01*
X343334Y122063D01*
Y117937D01*
X342861Y117776D01*
X342824Y117824D01*
X341997Y118459D01*
X341034Y118858D01*
X340000Y118994D01*
X338966Y118858D01*
X338003Y118459D01*
X337176Y117824D01*
X336541Y116997D01*
X336142Y116034D01*
X336006Y115000D01*
X336142Y113966D01*
X336541Y113003D01*
X337176Y112176D01*
X338003Y111541D01*
X338966Y111143D01*
X340000Y111006D01*
X341034Y111143D01*
X341997Y111541D01*
X342824Y112176D01*
X342861Y112224D01*
X343334Y112063D01*
Y107937D01*
X342861Y107776D01*
X342824Y107824D01*
X341997Y108459D01*
X341034Y108858D01*
X340000Y108994D01*
X338966Y108858D01*
X338003Y108459D01*
X337176Y107824D01*
X336541Y106997D01*
X336142Y106034D01*
X336006Y105000D01*
X336142Y103966D01*
X336541Y103003D01*
X337176Y102176D01*
X338003Y101541D01*
X338966Y101143D01*
X340000Y101006D01*
X341034Y101143D01*
X341997Y101541D01*
X342824Y102176D01*
X342861Y102224D01*
X343334Y102063D01*
Y97937D01*
X342861Y97776D01*
X342824Y97824D01*
X341997Y98459D01*
X341034Y98857D01*
X340000Y98994D01*
X338966Y98857D01*
X338003Y98459D01*
X337176Y97824D01*
X336541Y96997D01*
X336142Y96034D01*
X336006Y95000D01*
X336142Y93966D01*
X336541Y93003D01*
X337176Y92176D01*
X338003Y91541D01*
X338966Y91142D01*
X340000Y91006D01*
X340060Y91014D01*
X340281Y90566D01*
X340081Y90365D01*
X340080Y90365D01*
X339793Y89935D01*
X339793Y89935D01*
X339692Y89428D01*
Y88953D01*
X338966Y88858D01*
X338003Y88459D01*
X337176Y87824D01*
X336541Y86997D01*
X336142Y86034D01*
X336006Y85000D01*
X336142Y83966D01*
X336541Y83003D01*
X337176Y82176D01*
X338003Y81541D01*
X338966Y81142D01*
X340000Y81006D01*
X341034Y81142D01*
X341997Y81541D01*
X342824Y82176D01*
X343459Y83003D01*
X343858Y83966D01*
X343994Y85000D01*
X343858Y86034D01*
X343459Y86997D01*
X342824Y87824D01*
X342343Y88193D01*
Y88879D01*
X345597Y92133D01*
X345597Y92133D01*
X345884Y92563D01*
X345884Y92563D01*
X345985Y93070D01*
Y158781D01*
X345884Y159288D01*
X345597Y159718D01*
X324377Y180937D01*
X323947Y181225D01*
X323440Y181325D01*
X213726D01*
X213450Y181992D01*
X212817Y182817D01*
X211992Y183450D01*
X211031Y183848D01*
X210000Y183984D01*
D02*
G37*
G36*
X315000Y137586D02*
X313520Y137441D01*
X312097Y137009D01*
X310785Y136308D01*
X309635Y135364D01*
X308692Y134215D01*
X307991Y132903D01*
X307559Y131480D01*
X307414Y130000D01*
X307559Y128520D01*
X307991Y127097D01*
X308692Y125785D01*
X309635Y124636D01*
X310785Y123692D01*
X312097Y122991D01*
X313520Y122559D01*
X315000Y122414D01*
X316480Y122559D01*
X317903Y122991D01*
X319215Y123692D01*
X320364Y124636D01*
X321308Y125785D01*
X322009Y127097D01*
X322441Y128520D01*
X322586Y130000D01*
X322441Y131480D01*
X322009Y132903D01*
X321308Y134215D01*
X320364Y135364D01*
X319215Y136308D01*
X317903Y137009D01*
X316480Y137441D01*
X315000Y137586D01*
D02*
G37*
G36*
X215000D02*
X213520Y137441D01*
X212097Y137009D01*
X210785Y136308D01*
X209635Y135364D01*
X208692Y134215D01*
X207991Y132903D01*
X207559Y131480D01*
X207414Y130000D01*
X207559Y128520D01*
X207991Y127097D01*
X208692Y125785D01*
X209635Y124636D01*
X210785Y123692D01*
X212097Y122991D01*
X213520Y122559D01*
X215000Y122414D01*
X216480Y122559D01*
X217903Y122991D01*
X219215Y123692D01*
X220364Y124636D01*
X221308Y125785D01*
X222009Y127097D01*
X222441Y128520D01*
X222586Y130000D01*
X222441Y131480D01*
X222009Y132903D01*
X221308Y134215D01*
X220364Y135364D01*
X219215Y136308D01*
X217903Y137009D01*
X216480Y137441D01*
X215000Y137586D01*
D02*
G37*
G36*
X300000Y128984D02*
X298969Y128848D01*
X298008Y128450D01*
X297183Y127817D01*
X296550Y126992D01*
X296152Y126031D01*
X296016Y125000D01*
X296152Y123969D01*
X296550Y123008D01*
X297183Y122183D01*
X298008Y121550D01*
X298969Y121152D01*
X300000Y121016D01*
X301031Y121152D01*
X301992Y121550D01*
X302817Y122183D01*
X303450Y123008D01*
X303848Y123969D01*
X303984Y125000D01*
X303848Y126031D01*
X303450Y126992D01*
X302817Y127817D01*
X301992Y128450D01*
X301031Y128848D01*
X300000Y128984D01*
D02*
G37*
G36*
X290000D02*
X288969Y128848D01*
X288008Y128450D01*
X287183Y127817D01*
X286550Y126992D01*
X286152Y126031D01*
X286016Y125000D01*
X286152Y123969D01*
X286550Y123008D01*
X287183Y122183D01*
X288008Y121550D01*
X288969Y121152D01*
X290000Y121016D01*
X291031Y121152D01*
X291992Y121550D01*
X292817Y122183D01*
X293450Y123008D01*
X293848Y123969D01*
X293984Y125000D01*
X293848Y126031D01*
X293450Y126992D01*
X292817Y127817D01*
X291992Y128450D01*
X291031Y128848D01*
X290000Y128984D01*
D02*
G37*
G36*
X280000D02*
X278969Y128848D01*
X278008Y128450D01*
X277183Y127817D01*
X276550Y126992D01*
X276152Y126031D01*
X276016Y125000D01*
X276152Y123969D01*
X276550Y123008D01*
X277183Y122183D01*
X278008Y121550D01*
X278969Y121152D01*
X280000Y121016D01*
X281031Y121152D01*
X281992Y121550D01*
X282817Y122183D01*
X283450Y123008D01*
X283848Y123969D01*
X283984Y125000D01*
X283848Y126031D01*
X283450Y126992D01*
X282817Y127817D01*
X281992Y128450D01*
X281031Y128848D01*
X280000Y128984D01*
D02*
G37*
G36*
X270000D02*
X268969Y128848D01*
X268008Y128450D01*
X267183Y127817D01*
X266550Y126992D01*
X266152Y126031D01*
X266016Y125000D01*
X266152Y123969D01*
X266550Y123008D01*
X267183Y122183D01*
X268008Y121550D01*
X268969Y121152D01*
X270000Y121016D01*
X271031Y121152D01*
X271992Y121550D01*
X272817Y122183D01*
X273450Y123008D01*
X273848Y123969D01*
X273984Y125000D01*
X273848Y126031D01*
X273450Y126992D01*
X272817Y127817D01*
X271992Y128450D01*
X271031Y128848D01*
X270000Y128984D01*
D02*
G37*
G36*
X260000D02*
X258969Y128848D01*
X258008Y128450D01*
X257183Y127817D01*
X256550Y126992D01*
X256152Y126031D01*
X256016Y125000D01*
X256152Y123969D01*
X256550Y123008D01*
X257183Y122183D01*
X258008Y121550D01*
X258969Y121152D01*
X260000Y121016D01*
X261031Y121152D01*
X261992Y121550D01*
X262817Y122183D01*
X263450Y123008D01*
X263848Y123969D01*
X263984Y125000D01*
X263848Y126031D01*
X263450Y126992D01*
X262817Y127817D01*
X261992Y128450D01*
X261031Y128848D01*
X260000Y128984D01*
D02*
G37*
G36*
X250000D02*
X248969Y128848D01*
X248008Y128450D01*
X247183Y127817D01*
X246550Y126992D01*
X246152Y126031D01*
X246016Y125000D01*
X246152Y123969D01*
X246550Y123008D01*
X247183Y122183D01*
X248008Y121550D01*
X248969Y121152D01*
X250000Y121016D01*
X251031Y121152D01*
X251992Y121550D01*
X252817Y122183D01*
X253450Y123008D01*
X253848Y123969D01*
X253984Y125000D01*
X253848Y126031D01*
X253450Y126992D01*
X252817Y127817D01*
X251992Y128450D01*
X251031Y128848D01*
X250000Y128984D01*
D02*
G37*
G36*
X231575Y128996D02*
X228425D01*
X227499Y128812D01*
X226713Y128287D01*
X226188Y127501D01*
X226004Y126575D01*
Y123425D01*
X226188Y122499D01*
X226713Y121713D01*
X227499Y121188D01*
X228425Y121004D01*
X231575D01*
X232501Y121188D01*
X233287Y121713D01*
X233812Y122499D01*
X233996Y123425D01*
Y126575D01*
X233812Y127501D01*
X233287Y128287D01*
X232501Y128812D01*
X231575Y128996D01*
D02*
G37*
G36*
X400000Y138994D02*
X398966Y138857D01*
X398003Y138459D01*
X397176Y137824D01*
X396541Y136997D01*
X396143Y136034D01*
X396006Y135000D01*
X396143Y133966D01*
X396541Y133003D01*
X397176Y132176D01*
X398003Y131541D01*
X398966Y131142D01*
X400000Y131006D01*
X401034Y131142D01*
X401997Y131541D01*
X402824Y132176D01*
X403459Y133003D01*
X403737Y133675D01*
X419372D01*
X437263Y115784D01*
X437163Y115310D01*
X436711Y115163D01*
X425937Y125937D01*
X425507Y126225D01*
X425000Y126326D01*
X403737D01*
X403459Y126997D01*
X402824Y127824D01*
X401997Y128459D01*
X401034Y128858D01*
X400000Y128994D01*
X398966Y128858D01*
X398003Y128459D01*
X397176Y127824D01*
X396541Y126997D01*
X396143Y126034D01*
X396006Y125000D01*
X396143Y123966D01*
X396541Y123003D01*
X397176Y122176D01*
X398003Y121541D01*
X398966Y121142D01*
X400000Y121006D01*
X401034Y121142D01*
X401997Y121541D01*
X402824Y122176D01*
X403459Y123003D01*
X403737Y123674D01*
X424451D01*
X437332Y110793D01*
X437303Y110723D01*
X437208Y110000D01*
X437303Y109277D01*
X437582Y108604D01*
X438026Y108026D01*
X438248Y107854D01*
Y107224D01*
X438026Y107053D01*
X437582Y106475D01*
X437552Y106404D01*
X420079D01*
X419683Y106325D01*
X403737D01*
X403459Y106997D01*
X402824Y107824D01*
X401997Y108459D01*
X401034Y108858D01*
X400000Y108994D01*
X398966Y108858D01*
X398003Y108459D01*
X397176Y107824D01*
X396541Y106997D01*
X396143Y106034D01*
X396006Y105000D01*
X396143Y103966D01*
X396541Y103003D01*
X397176Y102176D01*
X398003Y101541D01*
X398966Y101143D01*
X400000Y101006D01*
X401034Y101143D01*
X401997Y101541D01*
X402824Y102176D01*
X403459Y103003D01*
X403737Y103674D01*
X420000D01*
X420396Y103753D01*
X437552D01*
X437582Y103683D01*
X438026Y103104D01*
X438248Y102933D01*
Y102303D01*
X438026Y102132D01*
X437582Y101554D01*
X437303Y100880D01*
X437208Y100157D01*
X437303Y99435D01*
X437332Y99364D01*
X434294Y96325D01*
X403737D01*
X403459Y96997D01*
X402824Y97824D01*
X401997Y98459D01*
X401034Y98857D01*
X400000Y98994D01*
X398966Y98857D01*
X398003Y98459D01*
X397176Y97824D01*
X396541Y96997D01*
X396143Y96034D01*
X396006Y95000D01*
X396143Y93966D01*
X396541Y93003D01*
X397176Y92176D01*
X398003Y91541D01*
X398966Y91142D01*
X400000Y91006D01*
X401034Y91142D01*
X401997Y91541D01*
X402824Y92176D01*
X403459Y93003D01*
X403737Y93674D01*
X434843D01*
X435350Y93775D01*
X435780Y94063D01*
X436732Y95015D01*
X437260Y94836D01*
X437303Y94513D01*
X437582Y93840D01*
X438026Y93262D01*
X438248Y93091D01*
Y92461D01*
X438026Y92290D01*
X437582Y91711D01*
X437552Y91641D01*
X405315D01*
X405315Y91641D01*
X404808Y91540D01*
X404378Y91252D01*
X401705Y88579D01*
X401034Y88858D01*
X400000Y88994D01*
X398966Y88858D01*
X398003Y88459D01*
X397176Y87824D01*
X396541Y86997D01*
X396143Y86034D01*
X396006Y85000D01*
X396143Y83966D01*
X396541Y83003D01*
X397176Y82176D01*
X398003Y81541D01*
X398966Y81142D01*
X400000Y81006D01*
X401034Y81142D01*
X401997Y81541D01*
X402824Y82176D01*
X403459Y83003D01*
X403858Y83966D01*
X403994Y85000D01*
X403858Y86034D01*
X403580Y86705D01*
X405864Y88990D01*
X437552D01*
X437582Y88919D01*
X438026Y88341D01*
X438169Y88230D01*
X438169Y87730D01*
X437883Y87511D01*
X437407Y86891D01*
X437108Y86169D01*
X437072Y85894D01*
X440000D01*
X442928D01*
X442892Y86169D01*
X442593Y86891D01*
X442117Y87511D01*
X441831Y87730D01*
X441831Y88230D01*
X441974Y88341D01*
X442418Y88919D01*
X442697Y89592D01*
X442792Y90315D01*
X442697Y91038D01*
X442418Y91711D01*
X441974Y92290D01*
X441752Y92461D01*
Y93091D01*
X441974Y93262D01*
X442418Y93840D01*
X442697Y94513D01*
X442792Y95236D01*
X442697Y95959D01*
X442418Y96632D01*
X441974Y97211D01*
X441752Y97382D01*
Y98012D01*
X441974Y98183D01*
X442418Y98761D01*
X442697Y99435D01*
X442792Y100157D01*
X442697Y100880D01*
X442418Y101554D01*
X441974Y102132D01*
X441752Y102303D01*
Y102933D01*
X441974Y103104D01*
X442418Y103683D01*
X442697Y104356D01*
X442792Y105079D01*
X442697Y105801D01*
X442418Y106475D01*
X441974Y107053D01*
X441752Y107224D01*
Y107854D01*
X441974Y108026D01*
X442418Y108604D01*
X442697Y109277D01*
X442792Y110000D01*
X442697Y110723D01*
X442418Y111396D01*
X441974Y111975D01*
X441752Y112145D01*
Y112776D01*
X441974Y112947D01*
X442418Y113525D01*
X442697Y114199D01*
X442792Y114921D01*
X442697Y115644D01*
X442418Y116317D01*
X441974Y116896D01*
X441752Y117067D01*
Y117697D01*
X441974Y117868D01*
X442418Y118446D01*
X442697Y119120D01*
X442792Y119843D01*
X442697Y120565D01*
X442418Y121239D01*
X441974Y121817D01*
X441396Y122261D01*
X440723Y122540D01*
X440000Y122635D01*
X439277Y122540D01*
X438604Y122261D01*
X438026Y121817D01*
X437582Y121239D01*
X437303Y120565D01*
X437260Y120243D01*
X436732Y120063D01*
X420858Y135937D01*
X420428Y136225D01*
X419921Y136326D01*
X403737D01*
X403459Y136997D01*
X402824Y137824D01*
X401997Y138459D01*
X401034Y138857D01*
X400000Y138994D01*
D02*
G37*
G36*
Y118994D02*
X398966Y118858D01*
X398003Y118459D01*
X397176Y117824D01*
X396541Y116997D01*
X396143Y116034D01*
X396006Y115000D01*
X396143Y113966D01*
X396541Y113003D01*
X397176Y112176D01*
X398003Y111541D01*
X398966Y111143D01*
X400000Y111006D01*
X401034Y111143D01*
X401997Y111541D01*
X402824Y112176D01*
X403459Y113003D01*
X403858Y113966D01*
X403994Y115000D01*
X403858Y116034D01*
X403459Y116997D01*
X402824Y117824D01*
X401997Y118459D01*
X401034Y118858D01*
X400000Y118994D01*
D02*
G37*
G36*
X315500Y105980D02*
Y100500D01*
X320980D01*
X320913Y101176D01*
X320570Y102307D01*
X320013Y103349D01*
X319263Y104263D01*
X318350Y105013D01*
X317307Y105570D01*
X316176Y105913D01*
X315500Y105980D01*
D02*
G37*
G36*
X314500D02*
X313824Y105913D01*
X312693Y105570D01*
X311650Y105013D01*
X310737Y104263D01*
X309987Y103349D01*
X309430Y102307D01*
X309087Y101176D01*
X309020Y100500D01*
X314500D01*
Y105980D01*
D02*
G37*
G36*
X220500D02*
Y100500D01*
X225980D01*
X225913Y101176D01*
X225570Y102307D01*
X225013Y103349D01*
X224263Y104263D01*
X223349Y105013D01*
X222307Y105570D01*
X221176Y105913D01*
X220500Y105980D01*
D02*
G37*
G36*
X219500D02*
X218824Y105913D01*
X217693Y105570D01*
X216651Y105013D01*
X215737Y104263D01*
X214987Y103349D01*
X214430Y102307D01*
X214087Y101176D01*
X214020Y100500D01*
X219500D01*
Y105980D01*
D02*
G37*
G36*
X35940Y109671D02*
X34446Y109474D01*
X33055Y108898D01*
X31859Y107981D01*
X30942Y106785D01*
X30366Y105394D01*
X30169Y103900D01*
X30366Y102406D01*
X30942Y101015D01*
X31859Y99819D01*
X33055Y98902D01*
X34446Y98326D01*
X35940Y98129D01*
X37434Y98326D01*
X38825Y98902D01*
X40021Y99819D01*
X40938Y101015D01*
X41514Y102406D01*
X41711Y103900D01*
X41514Y105394D01*
X40938Y106785D01*
X40021Y107981D01*
X38825Y108898D01*
X37434Y109474D01*
X35940Y109671D01*
D02*
G37*
G36*
X188300Y109621D02*
X186806Y109424D01*
X185415Y108848D01*
X184219Y107931D01*
X183302Y106735D01*
X182726Y105344D01*
X182529Y103850D01*
X182726Y102356D01*
X183302Y100965D01*
X184219Y99769D01*
X185415Y98852D01*
X186806Y98276D01*
X188300Y98079D01*
X189794Y98276D01*
X191185Y98852D01*
X192381Y99769D01*
X193298Y100965D01*
X193874Y102356D01*
X194071Y103850D01*
X193874Y105344D01*
X193298Y106735D01*
X192381Y107931D01*
X191185Y108848D01*
X189794Y109424D01*
X188300Y109621D01*
D02*
G37*
G36*
X320980Y99500D02*
X315500D01*
Y94020D01*
X316176Y94087D01*
X317307Y94430D01*
X318350Y94987D01*
X319263Y95737D01*
X320013Y96650D01*
X320570Y97693D01*
X320913Y98824D01*
X320980Y99500D01*
D02*
G37*
G36*
X314500D02*
X309020D01*
X309087Y98824D01*
X309430Y97693D01*
X309987Y96650D01*
X310737Y95737D01*
X311650Y94987D01*
X312693Y94430D01*
X313824Y94087D01*
X314500Y94020D01*
Y99500D01*
D02*
G37*
G36*
X225980D02*
X220500D01*
Y94020D01*
X221176Y94087D01*
X222307Y94430D01*
X223349Y94987D01*
X224263Y95737D01*
X225013Y96650D01*
X225570Y97693D01*
X225913Y98824D01*
X225980Y99500D01*
D02*
G37*
G36*
X219500D02*
X214020D01*
X214087Y98824D01*
X214430Y97693D01*
X214987Y96650D01*
X215737Y95737D01*
X216651Y94987D01*
X217693Y94430D01*
X218824Y94087D01*
X219500Y94020D01*
Y99500D01*
D02*
G37*
G36*
X442928Y84894D02*
X440000D01*
X437072D01*
X437108Y84619D01*
X437407Y83897D01*
X437883Y83277D01*
X438169Y83057D01*
Y82557D01*
X438026Y82447D01*
X437582Y81869D01*
X437303Y81195D01*
X437208Y80472D01*
X437303Y79750D01*
X437582Y79076D01*
X437779Y78820D01*
X437532Y78320D01*
X437231D01*
Y76877D01*
X420551D01*
X420044Y76776D01*
X419614Y76489D01*
X419451Y76326D01*
X403737D01*
X403459Y76997D01*
X402824Y77824D01*
X401997Y78459D01*
X401034Y78857D01*
X400000Y78994D01*
X398966Y78857D01*
X398003Y78459D01*
X397176Y77824D01*
X396541Y76997D01*
X396143Y76034D01*
X396006Y75000D01*
X396143Y73966D01*
X396541Y73003D01*
X397176Y72176D01*
X398003Y71541D01*
X398966Y71143D01*
X400000Y71006D01*
X401034Y71143D01*
X401997Y71541D01*
X402824Y72176D01*
X403459Y73003D01*
X403737Y73674D01*
X420000D01*
X420507Y73775D01*
X420937Y74063D01*
X421100Y74226D01*
X437231D01*
Y72783D01*
X442768D01*
Y78320D01*
X442468D01*
X442221Y78820D01*
X442418Y79076D01*
X442697Y79750D01*
X442792Y80472D01*
X442697Y81195D01*
X442418Y81869D01*
X441974Y82447D01*
X441831Y82557D01*
Y83057D01*
X442117Y83277D01*
X442593Y83897D01*
X442892Y84619D01*
X442928Y84894D01*
D02*
G37*
G36*
X400000Y68994D02*
X398966Y68858D01*
X398003Y68459D01*
X397176Y67824D01*
X396541Y66997D01*
X396143Y66034D01*
X396006Y65000D01*
X396143Y63966D01*
X396541Y63003D01*
X397176Y62176D01*
X398003Y61541D01*
X398966Y61142D01*
X400000Y61006D01*
X401034Y61142D01*
X401997Y61541D01*
X402824Y62176D01*
X403459Y63003D01*
X403858Y63966D01*
X403994Y65000D01*
X403858Y66034D01*
X403459Y66997D01*
X402824Y67824D01*
X401997Y68459D01*
X401034Y68858D01*
X400000Y68994D01*
D02*
G37*
G36*
X340000D02*
X338966Y68858D01*
X338003Y68459D01*
X337176Y67824D01*
X336541Y66997D01*
X336142Y66034D01*
X336006Y65000D01*
X336142Y63966D01*
X336541Y63003D01*
X337176Y62176D01*
X338003Y61541D01*
X338966Y61142D01*
X340000Y61006D01*
X341034Y61142D01*
X341997Y61541D01*
X342824Y62176D01*
X343459Y63003D01*
X343858Y63966D01*
X343994Y65000D01*
X343858Y66034D01*
X343459Y66997D01*
X342824Y67824D01*
X341997Y68459D01*
X341034Y68858D01*
X340000Y68994D01*
D02*
G37*
G36*
X400000Y58994D02*
X398966Y58858D01*
X398003Y58459D01*
X397176Y57824D01*
X396541Y56997D01*
X396143Y56034D01*
X396006Y55000D01*
X396143Y53966D01*
X396541Y53003D01*
X397176Y52176D01*
X398003Y51541D01*
X398966Y51143D01*
X400000Y51006D01*
X401034Y51143D01*
X401997Y51541D01*
X402824Y52176D01*
X403459Y53003D01*
X403858Y53966D01*
X403994Y55000D01*
X403858Y56034D01*
X403459Y56997D01*
X402824Y57824D01*
X401997Y58459D01*
X401034Y58858D01*
X400000Y58994D01*
D02*
G37*
G36*
X340000D02*
X338966Y58858D01*
X338003Y58459D01*
X337176Y57824D01*
X336541Y56997D01*
X336142Y56034D01*
X336006Y55000D01*
X336142Y53966D01*
X336541Y53003D01*
X337176Y52176D01*
X338003Y51541D01*
X338966Y51143D01*
X340000Y51006D01*
X341034Y51143D01*
X341997Y51541D01*
X342824Y52176D01*
X343459Y53003D01*
X343858Y53966D01*
X343994Y55000D01*
X343858Y56034D01*
X343459Y56997D01*
X342824Y57824D01*
X341997Y58459D01*
X341034Y58858D01*
X340000Y58994D01*
D02*
G37*
G36*
X340500Y49130D02*
Y45500D01*
X344129D01*
X344052Y46086D01*
X343633Y47098D01*
X342967Y47967D01*
X342098Y48633D01*
X341086Y49052D01*
X340500Y49130D01*
D02*
G37*
G36*
X315500Y50980D02*
Y45500D01*
X320980D01*
X320913Y46176D01*
X320570Y47307D01*
X320013Y48349D01*
X319263Y49263D01*
X318350Y50013D01*
X317307Y50570D01*
X316176Y50913D01*
X315500Y50980D01*
D02*
G37*
G36*
X314500D02*
X313824Y50913D01*
X312693Y50570D01*
X311650Y50013D01*
X310737Y49263D01*
X309987Y48349D01*
X309430Y47307D01*
X309087Y46176D01*
X309020Y45500D01*
X314500D01*
Y50980D01*
D02*
G37*
G36*
X293000Y49120D02*
Y45500D01*
X296620D01*
X296543Y46083D01*
X296125Y47093D01*
X295460Y47960D01*
X294593Y48625D01*
X293583Y49043D01*
X293000Y49120D01*
D02*
G37*
G36*
X292000D02*
X291417Y49043D01*
X290407Y48625D01*
X289541Y47960D01*
X288875Y47093D01*
X288457Y46083D01*
X288380Y45500D01*
X292000D01*
Y49120D01*
D02*
G37*
G36*
X220500Y50980D02*
Y45500D01*
X225980D01*
X225913Y46176D01*
X225570Y47307D01*
X225013Y48349D01*
X224263Y49263D01*
X223349Y50013D01*
X222307Y50570D01*
X221176Y50913D01*
X220500Y50980D01*
D02*
G37*
G36*
X219500D02*
X218824Y50913D01*
X217693Y50570D01*
X216651Y50013D01*
X215737Y49263D01*
X214987Y48349D01*
X214430Y47307D01*
X214087Y46176D01*
X214020Y45500D01*
X219500D01*
Y50980D01*
D02*
G37*
G36*
X339500Y49130D02*
X338914Y49052D01*
X337902Y48633D01*
X337033Y47967D01*
X336367Y47098D01*
X335948Y46086D01*
X335871Y45500D01*
X339500D01*
Y49130D01*
D02*
G37*
G36*
X100000Y48429D02*
X99112Y48313D01*
X98285Y47970D01*
X97575Y47425D01*
X97030Y46715D01*
X96688Y45888D01*
X96571Y45000D01*
X96688Y44112D01*
X97030Y43285D01*
X97575Y42575D01*
X98285Y42030D01*
X99112Y41688D01*
X100000Y41571D01*
X100888Y41688D01*
X101715Y42030D01*
X102425Y42575D01*
X102970Y43285D01*
X103313Y44112D01*
X103429Y45000D01*
X103313Y45888D01*
X102970Y46715D01*
X102425Y47425D01*
X101715Y47970D01*
X100888Y48313D01*
X100000Y48429D01*
D02*
G37*
G36*
X92126D02*
X91238Y48313D01*
X90411Y47970D01*
X89701Y47425D01*
X89156Y46715D01*
X88814Y45888D01*
X88697Y45000D01*
X88814Y44112D01*
X89156Y43285D01*
X89701Y42575D01*
X90411Y42030D01*
X91238Y41688D01*
X92126Y41571D01*
X93014Y41688D01*
X93841Y42030D01*
X94551Y42575D01*
X95096Y43285D01*
X95438Y44112D01*
X95555Y45000D01*
X95438Y45888D01*
X95096Y46715D01*
X94551Y47425D01*
X93841Y47970D01*
X93014Y48313D01*
X92126Y48429D01*
D02*
G37*
G36*
X302500Y48984D02*
X301469Y48848D01*
X300508Y48450D01*
X299683Y47817D01*
X299050Y46992D01*
X298652Y46031D01*
X298516Y45000D01*
X298652Y43969D01*
X299050Y43008D01*
X299683Y42183D01*
X300508Y41550D01*
X301469Y41152D01*
X302500Y41016D01*
X303531Y41152D01*
X304492Y41550D01*
X305317Y42183D01*
X305950Y43008D01*
X306348Y43969D01*
X306484Y45000D01*
X306348Y46031D01*
X305950Y46992D01*
X305317Y47817D01*
X304492Y48450D01*
X303531Y48848D01*
X302500Y48984D01*
D02*
G37*
G36*
X282500D02*
X281469Y48848D01*
X280508Y48450D01*
X279683Y47817D01*
X279050Y46992D01*
X278652Y46031D01*
X278516Y45000D01*
X278652Y43969D01*
X279050Y43008D01*
X279683Y42183D01*
X280508Y41550D01*
X281469Y41152D01*
X282500Y41016D01*
X283531Y41152D01*
X284492Y41550D01*
X285317Y42183D01*
X285950Y43008D01*
X286348Y43969D01*
X286484Y45000D01*
X286348Y46031D01*
X285950Y46992D01*
X285317Y47817D01*
X284492Y48450D01*
X283531Y48848D01*
X282500Y48984D01*
D02*
G37*
G36*
X272500D02*
X271469Y48848D01*
X270508Y48450D01*
X269683Y47817D01*
X269050Y46992D01*
X268652Y46031D01*
X268516Y45000D01*
X268652Y43969D01*
X269050Y43008D01*
X269683Y42183D01*
X270508Y41550D01*
X271469Y41152D01*
X272500Y41016D01*
X273531Y41152D01*
X274492Y41550D01*
X275317Y42183D01*
X275950Y43008D01*
X276348Y43969D01*
X276484Y45000D01*
X276348Y46031D01*
X275950Y46992D01*
X275317Y47817D01*
X274492Y48450D01*
X273531Y48848D01*
X272500Y48984D01*
D02*
G37*
G36*
X262500D02*
X261469Y48848D01*
X260508Y48450D01*
X259683Y47817D01*
X259050Y46992D01*
X258652Y46031D01*
X258516Y45000D01*
X258652Y43969D01*
X259050Y43008D01*
X259683Y42183D01*
X260508Y41550D01*
X261469Y41152D01*
X262500Y41016D01*
X263531Y41152D01*
X264492Y41550D01*
X265317Y42183D01*
X265950Y43008D01*
X266348Y43969D01*
X266484Y45000D01*
X266348Y46031D01*
X265950Y46992D01*
X265317Y47817D01*
X264492Y48450D01*
X263531Y48848D01*
X262500Y48984D01*
D02*
G37*
G36*
X252500D02*
X251469Y48848D01*
X250508Y48450D01*
X249683Y47817D01*
X249050Y46992D01*
X248652Y46031D01*
X248516Y45000D01*
X248652Y43969D01*
X249050Y43008D01*
X249683Y42183D01*
X250508Y41550D01*
X251469Y41152D01*
X252500Y41016D01*
X253531Y41152D01*
X254492Y41550D01*
X255317Y42183D01*
X255950Y43008D01*
X256348Y43969D01*
X256484Y45000D01*
X256348Y46031D01*
X255950Y46992D01*
X255317Y47817D01*
X254492Y48450D01*
X253531Y48848D01*
X252500Y48984D01*
D02*
G37*
G36*
X242500D02*
X241469Y48848D01*
X240508Y48450D01*
X239683Y47817D01*
X239050Y46992D01*
X238652Y46031D01*
X238516Y45000D01*
X238652Y43969D01*
X239050Y43008D01*
X239683Y42183D01*
X240508Y41550D01*
X241469Y41152D01*
X242500Y41016D01*
X243531Y41152D01*
X244492Y41550D01*
X245317Y42183D01*
X245950Y43008D01*
X246348Y43969D01*
X246484Y45000D01*
X246348Y46031D01*
X245950Y46992D01*
X245317Y47817D01*
X244492Y48450D01*
X243531Y48848D01*
X242500Y48984D01*
D02*
G37*
G36*
X400000Y48994D02*
X398966Y48858D01*
X398003Y48459D01*
X397176Y47824D01*
X396541Y46997D01*
X396143Y46034D01*
X396006Y45000D01*
X396143Y43966D01*
X396541Y43003D01*
X397176Y42176D01*
X398003Y41541D01*
X398966Y41142D01*
X400000Y41006D01*
X401034Y41142D01*
X401997Y41541D01*
X402824Y42176D01*
X403459Y43003D01*
X403858Y43966D01*
X403994Y45000D01*
X403858Y46034D01*
X403459Y46997D01*
X402824Y47824D01*
X401997Y48459D01*
X401034Y48858D01*
X400000Y48994D01*
D02*
G37*
G36*
X234075Y48996D02*
X230925D01*
X229999Y48812D01*
X229213Y48287D01*
X228688Y47501D01*
X228504Y46575D01*
Y43425D01*
X228688Y42499D01*
X229213Y41713D01*
X229999Y41188D01*
X230925Y41004D01*
X234075D01*
X235001Y41188D01*
X235787Y41713D01*
X236312Y42499D01*
X236496Y43425D01*
Y46575D01*
X236312Y47501D01*
X235787Y48287D01*
X235001Y48812D01*
X234075Y48996D01*
D02*
G37*
G36*
X296620Y44500D02*
X293000D01*
Y40880D01*
X293583Y40957D01*
X294593Y41375D01*
X295460Y42041D01*
X296125Y42907D01*
X296543Y43917D01*
X296620Y44500D01*
D02*
G37*
G36*
X292000D02*
X288380D01*
X288457Y43917D01*
X288875Y42907D01*
X289541Y42041D01*
X290407Y41375D01*
X291417Y40957D01*
X292000Y40880D01*
Y44500D01*
D02*
G37*
G36*
X344129D02*
X340500D01*
Y40870D01*
X341086Y40948D01*
X342098Y41367D01*
X342967Y42033D01*
X343633Y42902D01*
X344052Y43914D01*
X344129Y44500D01*
D02*
G37*
G36*
X339500D02*
X335871D01*
X335948Y43914D01*
X336367Y42902D01*
X337033Y42033D01*
X337902Y41367D01*
X338914Y40948D01*
X339500Y40870D01*
Y44500D01*
D02*
G37*
G36*
X320980D02*
X315500D01*
Y39020D01*
X316176Y39087D01*
X317307Y39430D01*
X318350Y39987D01*
X319263Y40737D01*
X320013Y41651D01*
X320570Y42693D01*
X320913Y43824D01*
X320980Y44500D01*
D02*
G37*
G36*
X314500D02*
X309020D01*
X309087Y43824D01*
X309430Y42693D01*
X309987Y41651D01*
X310737Y40737D01*
X311650Y39987D01*
X312693Y39430D01*
X313824Y39087D01*
X314500Y39020D01*
Y44500D01*
D02*
G37*
G36*
X225980D02*
X220500D01*
Y39020D01*
X221176Y39087D01*
X222307Y39430D01*
X223349Y39987D01*
X224263Y40737D01*
X225013Y41651D01*
X225570Y42693D01*
X225913Y43824D01*
X225980Y44500D01*
D02*
G37*
G36*
X219500D02*
X214020D01*
X214087Y43824D01*
X214430Y42693D01*
X214987Y41651D01*
X215737Y40737D01*
X216651Y39987D01*
X217693Y39430D01*
X218824Y39087D01*
X219500Y39020D01*
Y44500D01*
D02*
G37*
G36*
X145000Y45295D02*
X143630Y45115D01*
X142352Y44586D01*
X141256Y43744D01*
X140414Y42648D01*
X139885Y41370D01*
X139705Y40000D01*
X139885Y38629D01*
X140414Y37352D01*
X141256Y36256D01*
X142352Y35414D01*
X143630Y34885D01*
X145000Y34705D01*
X146370Y34885D01*
X147648Y35414D01*
X148744Y36256D01*
X149586Y37352D01*
X150115Y38629D01*
X150295Y40000D01*
X150115Y41370D01*
X149586Y42648D01*
X148744Y43744D01*
X147648Y44586D01*
X146370Y45115D01*
X145000Y45295D01*
D02*
G37*
G36*
X400000Y38994D02*
X398966Y38857D01*
X398003Y38459D01*
X397176Y37824D01*
X396541Y36997D01*
X396143Y36034D01*
X396006Y35000D01*
X396143Y33966D01*
X396541Y33003D01*
X397176Y32176D01*
X398003Y31541D01*
X398966Y31143D01*
X400000Y31006D01*
X401034Y31143D01*
X401997Y31541D01*
X402824Y32176D01*
X403459Y33003D01*
X403858Y33966D01*
X403994Y35000D01*
X403858Y36034D01*
X403459Y36997D01*
X402824Y37824D01*
X401997Y38459D01*
X401034Y38857D01*
X400000Y38994D01*
D02*
G37*
G36*
X340000D02*
X338966Y38857D01*
X338003Y38459D01*
X337176Y37824D01*
X336541Y36997D01*
X336142Y36034D01*
X336006Y35000D01*
X336142Y33966D01*
X336541Y33003D01*
X337176Y32176D01*
X338003Y31541D01*
X338966Y31143D01*
X340000Y31006D01*
X341034Y31143D01*
X341997Y31541D01*
X342824Y32176D01*
X343459Y33003D01*
X343858Y33966D01*
X343994Y35000D01*
X343858Y36034D01*
X343459Y36997D01*
X342824Y37824D01*
X341997Y38459D01*
X341034Y38857D01*
X340000Y38994D01*
D02*
G37*
G36*
X272500Y28984D02*
X271469Y28848D01*
X270508Y28450D01*
X269683Y27817D01*
X269050Y26992D01*
X268652Y26031D01*
X268516Y25000D01*
X268652Y23969D01*
X269050Y23008D01*
X269683Y22183D01*
X270508Y21550D01*
X271469Y21152D01*
X272500Y21016D01*
X273531Y21152D01*
X274492Y21550D01*
X275317Y22183D01*
X275950Y23008D01*
X276348Y23969D01*
X276484Y25000D01*
X276348Y26031D01*
X275950Y26992D01*
X275317Y27817D01*
X274492Y28450D01*
X273531Y28848D01*
X272500Y28984D01*
D02*
G37*
G36*
X232500D02*
X231469Y28848D01*
X230508Y28450D01*
X229683Y27817D01*
X229050Y26992D01*
X228652Y26031D01*
X228516Y25000D01*
X228652Y23969D01*
X229050Y23008D01*
X229683Y22183D01*
X230508Y21550D01*
X231469Y21152D01*
X232500Y21016D01*
X233531Y21152D01*
X234492Y21550D01*
X235317Y22183D01*
X235950Y23008D01*
X236348Y23969D01*
X236484Y25000D01*
X236348Y26031D01*
X235950Y26992D01*
X235317Y27817D01*
X234492Y28450D01*
X233531Y28848D01*
X232500Y28984D01*
D02*
G37*
G36*
X324550Y29100D02*
X320450D01*
X318400Y27050D01*
Y22950D01*
X320450Y20900D01*
X324550D01*
X326600Y22950D01*
Y27050D01*
X324550Y29100D01*
D02*
G37*
G36*
X284550D02*
X280450D01*
X278400Y27050D01*
Y22950D01*
X280450Y20900D01*
X284550D01*
X286600Y22950D01*
Y27050D01*
X284550Y29100D01*
D02*
G37*
G36*
X150250Y27150D02*
X139750D01*
Y16650D01*
X150250D01*
Y27150D01*
D02*
G37*
%LPD*%
D15*
X420551Y75551D02*
X440000D01*
X420000Y75000D02*
X420551Y75551D01*
X400000Y75000D02*
X420000D01*
X420079Y105079D02*
X440000D01*
X420000Y105000D02*
X420079Y105079D01*
X400000Y105000D02*
X420000D01*
X400000Y95000D02*
X434843D01*
X440000Y100157D01*
X400000Y125000D02*
X425000D01*
X440000Y110000D01*
X400000Y135000D02*
X419921D01*
X440000Y114921D01*
X400000Y85000D02*
X405315Y90315D01*
X440000D01*
X315000Y100000D02*
X334500Y80500D01*
X435106D01*
X440000Y85394D01*
X200000Y165000D02*
X240000Y125000D01*
X200000Y165000D02*
Y190000D01*
X210000Y200000D01*
X240000Y125000D02*
X290000Y75000D01*
X340000D01*
X342205Y231142D02*
X367795D01*
X400000Y198937D01*
Y155000D02*
Y198937D01*
Y145000D02*
X410000Y155000D01*
Y223937D01*
X402795Y231142D02*
X410000Y223937D01*
X377205Y231142D02*
X402795D01*
X340000Y85000D02*
X341018Y86018D01*
Y89428D01*
X344659Y93070D01*
Y158781D01*
X323440Y180000D02*
X344659Y158781D01*
X210000Y180000D02*
X323440D01*
D17*
X440000Y119843D02*
D03*
Y114921D02*
D03*
Y110000D02*
D03*
Y105079D02*
D03*
Y100157D02*
D03*
Y95236D02*
D03*
Y90315D02*
D03*
Y85394D02*
D03*
Y80472D02*
D03*
D18*
Y75551D02*
D03*
D25*
X145000Y21900D02*
D03*
D28*
X92126Y45000D02*
D03*
X100000D02*
D03*
D31*
X145000Y40000D02*
D03*
D33*
X35940Y103900D02*
D03*
X188300Y103850D02*
D03*
D34*
X442500Y257500D02*
D03*
Y12500D02*
D03*
X12500Y257500D02*
D03*
Y12500D02*
D03*
D35*
X342205Y248858D02*
D03*
X377205D02*
D03*
D36*
X367795D02*
D03*
X342205Y231142D02*
D03*
X367795D02*
D03*
X402795D02*
D03*
X377205D02*
D03*
X402795Y248858D02*
D03*
D37*
X282500Y25000D02*
D03*
X322500D02*
D03*
D38*
X302500Y45000D02*
D03*
X282500D02*
D03*
X240000Y125000D02*
D03*
X210000Y200000D02*
D03*
X272500Y45000D02*
D03*
Y25000D02*
D03*
X290000Y125000D02*
D03*
X210000Y190000D02*
D03*
Y180000D02*
D03*
X300000Y125000D02*
D03*
X280000D02*
D03*
X232500Y25000D02*
D03*
X262500Y45000D02*
D03*
X242500D02*
D03*
X252500D02*
D03*
X292500D02*
D03*
X270000Y125000D02*
D03*
X250000D02*
D03*
X260000D02*
D03*
D39*
X400000Y95000D02*
D03*
Y105000D02*
D03*
Y125000D02*
D03*
Y55000D02*
D03*
X340000Y75000D02*
D03*
X400000Y45000D02*
D03*
Y135000D02*
D03*
X340000Y55000D02*
D03*
X400000Y75000D02*
D03*
Y65000D02*
D03*
Y85000D02*
D03*
Y145000D02*
D03*
X340000Y35000D02*
D03*
Y45000D02*
D03*
Y65000D02*
D03*
Y85000D02*
D03*
Y95000D02*
D03*
Y105000D02*
D03*
Y115000D02*
D03*
Y125000D02*
D03*
Y135000D02*
D03*
Y145000D02*
D03*
X400000Y115000D02*
D03*
Y35000D02*
D03*
D40*
X215000Y130000D02*
D03*
Y260000D02*
D03*
X315000D02*
D03*
Y130000D02*
D03*
X220000Y45000D02*
D03*
X315000D02*
D03*
Y100000D02*
D03*
X220000D02*
D03*
D41*
X230000Y125000D02*
D03*
X232500Y45000D02*
D03*
D42*
X210000Y210000D02*
D03*
D43*
X340000Y155000D02*
D03*
X400000D02*
D03*
M02*
