G04*
G04 #@! TF.GenerationSoftware,Altium Limited,Altium Designer,26.1.1 (7)*
G04*
G04 Layer_Physical_Order=1*
G04 Layer_Color=255*
%FSLAX25Y25*%
%MOIN*%
G70*
G04*
G04 #@! TF.SameCoordinates,CD37B294-F107-4AD9-A554-E696D81969F0*
G04*
G04*
G04 #@! TF.FilePolarity,Positive*
G04*
G01*
G75*
%ADD15C,0.01000*%
G04:AMPARAMS|DCode=16|XSize=30mil|YSize=60mil|CornerRadius=7.5mil|HoleSize=0mil|Usage=FLASHONLY|Rotation=270.000|XOffset=0mil|YOffset=0mil|HoleType=Round|Shape=RoundedRectangle|*
%AMROUNDEDRECTD16*
21,1,0.03000,0.04500,0,0,270.0*
21,1,0.01500,0.06000,0,0,270.0*
1,1,0.01500,-0.02250,-0.00750*
1,1,0.01500,-0.02250,0.00750*
1,1,0.01500,0.02250,0.00750*
1,1,0.01500,0.02250,-0.00750*
%
%ADD16ROUNDEDRECTD16*%
%ADD17C,0.03937*%
%ADD18R,0.03937X0.03937*%
%ADD25R,0.08900X0.08900*%
%ADD28C,0.05200*%
%ADD31C,0.08900*%
%ADD33C,0.09843*%
%ADD34C,0.13000*%
%ADD35R,0.05937X0.05937*%
%ADD36C,0.05937*%
G04:AMPARAMS|DCode=37|XSize=66mil|YSize=66mil|CornerRadius=0mil|HoleSize=0mil|Usage=FLASHONLY|Rotation=180.000|XOffset=0mil|YOffset=0mil|HoleType=Round|Shape=Octagon|*
%AMOCTAGOND37*
4,1,8,-0.03300,0.01650,-0.03300,-0.01650,-0.01650,-0.03300,0.01650,-0.03300,0.03300,-0.01650,0.03300,0.01650,0.01650,0.03300,-0.01650,0.03300,-0.03300,0.01650,0.0*
%
%ADD37OCTAGOND37*%

%ADD38C,0.06299*%
%ADD39C,0.06319*%
%ADD40C,0.06000*%
G04:AMPARAMS|DCode=41|XSize=62.99mil|YSize=62.99mil|CornerRadius=15.75mil|HoleSize=0mil|Usage=FLASHONLY|Rotation=0.000|XOffset=0mil|YOffset=0mil|HoleType=Round|Shape=RoundedRectangle|*
%AMROUNDEDRECTD41*
21,1,0.06299,0.03150,0,0,0.0*
21,1,0.03150,0.06299,0,0,0.0*
1,1,0.03150,0.01575,-0.01575*
1,1,0.03150,-0.01575,-0.01575*
1,1,0.03150,-0.01575,0.01575*
1,1,0.03150,0.01575,0.01575*
%
%ADD41ROUNDEDRECTD41*%
G04:AMPARAMS|DCode=42|XSize=62.99mil|YSize=62.99mil|CornerRadius=15.75mil|HoleSize=0mil|Usage=FLASHONLY|Rotation=270.000|XOffset=0mil|YOffset=0mil|HoleType=Round|Shape=RoundedRectangle|*
%AMROUNDEDRECTD42*
21,1,0.06299,0.03150,0,0,270.0*
21,1,0.03150,0.06299,0,0,270.0*
1,1,0.03150,-0.01575,-0.01575*
1,1,0.03150,-0.01575,0.01575*
1,1,0.03150,0.01575,0.01575*
1,1,0.03150,0.01575,-0.01575*
%
%ADD42ROUNDEDRECTD42*%
%ADD43R,0.06319X0.06319*%
G36*
X443989Y265305D02*
X443914Y264724D01*
X443889Y264699D01*
X442500Y264835D01*
X441069Y264694D01*
X439693Y264277D01*
X438425Y263599D01*
X437313Y262687D01*
X436401Y261575D01*
X435723Y260307D01*
X435306Y258931D01*
X435165Y257500D01*
X435306Y256069D01*
X435723Y254693D01*
X436401Y253425D01*
X437313Y252313D01*
X438425Y251401D01*
X439693Y250723D01*
X441069Y250306D01*
X442500Y250165D01*
X443931Y250306D01*
X445307Y250723D01*
X446575Y251401D01*
X447687Y252313D01*
X448599Y253425D01*
X449277Y254693D01*
X449694Y256069D01*
X449835Y257500D01*
X449698Y258889D01*
X449724Y258914D01*
X450305Y258989D01*
X450965Y258329D01*
Y11671D01*
X450305Y11011D01*
X449724Y11086D01*
X449698Y11111D01*
X449835Y12500D01*
X449694Y13931D01*
X449277Y15307D01*
X448599Y16575D01*
X447687Y17687D01*
X446575Y18599D01*
X445307Y19277D01*
X443931Y19694D01*
X442500Y19835D01*
X441069Y19694D01*
X439693Y19277D01*
X438425Y18599D01*
X437313Y17687D01*
X436401Y16575D01*
X435723Y15307D01*
X435306Y13931D01*
X435165Y12500D01*
X435306Y11069D01*
X435723Y9693D01*
X436401Y8425D01*
X437313Y7313D01*
X438425Y6401D01*
X439693Y5723D01*
X441069Y5306D01*
X442500Y5165D01*
X443889Y5302D01*
X443914Y5276D01*
X443989Y4695D01*
X443329Y4034D01*
X11671D01*
X11011Y4695D01*
X11086Y5276D01*
X11111Y5302D01*
X12500Y5165D01*
X13931Y5306D01*
X15307Y5723D01*
X16575Y6401D01*
X17687Y7313D01*
X18599Y8425D01*
X19277Y9693D01*
X19694Y11069D01*
X19835Y12500D01*
X19694Y13931D01*
X19277Y15307D01*
X18599Y16575D01*
X17687Y17687D01*
X16575Y18599D01*
X15307Y19277D01*
X13931Y19694D01*
X12500Y19835D01*
X11069Y19694D01*
X9693Y19277D01*
X8425Y18599D01*
X7313Y17687D01*
X6401Y16575D01*
X5723Y15307D01*
X5306Y13931D01*
X5165Y12500D01*
X5302Y11111D01*
X5276Y11086D01*
X4695Y11011D01*
X4034Y11671D01*
Y258329D01*
X4695Y258989D01*
X5276Y258914D01*
X5302Y258889D01*
X5165Y257500D01*
X5306Y256069D01*
X5723Y254693D01*
X6401Y253425D01*
X7313Y252313D01*
X8425Y251401D01*
X9693Y250723D01*
X11069Y250306D01*
X12500Y250165D01*
X13931Y250306D01*
X15307Y250723D01*
X16575Y251401D01*
X17687Y252313D01*
X18599Y253425D01*
X19277Y254693D01*
X19694Y256069D01*
X19835Y257500D01*
X19694Y258931D01*
X19277Y260307D01*
X18599Y261575D01*
X17687Y262687D01*
X16575Y263599D01*
X15307Y264277D01*
X13931Y264694D01*
X12500Y264835D01*
X11111Y264699D01*
X11086Y264724D01*
X11011Y265305D01*
X11671Y265966D01*
X209626D01*
X209794Y265495D01*
X209635Y265365D01*
X208692Y264215D01*
X207991Y262903D01*
X207559Y261480D01*
X207414Y260000D01*
X207559Y258520D01*
X207991Y257097D01*
X208692Y255785D01*
X209635Y254636D01*
X210785Y253692D01*
X212097Y252991D01*
X213520Y252559D01*
X215000Y252414D01*
X216480Y252559D01*
X217903Y252991D01*
X219215Y253692D01*
X220364Y254636D01*
X221308Y255785D01*
X222009Y257097D01*
X222441Y258520D01*
X222586Y260000D01*
X222441Y261480D01*
X222009Y262903D01*
X221308Y264215D01*
X220364Y265365D01*
X220206Y265495D01*
X220374Y265966D01*
X309626D01*
X309794Y265495D01*
X309635Y265365D01*
X308692Y264215D01*
X307991Y262903D01*
X307559Y261480D01*
X307414Y260000D01*
X307559Y258520D01*
X307991Y257097D01*
X308692Y255785D01*
X309635Y254636D01*
X310785Y253692D01*
X312097Y252991D01*
X313520Y252559D01*
X315000Y252414D01*
X316480Y252559D01*
X317903Y252991D01*
X319215Y253692D01*
X320364Y254636D01*
X321308Y255785D01*
X322009Y257097D01*
X322441Y258520D01*
X322586Y260000D01*
X322441Y261480D01*
X322009Y262903D01*
X321308Y264215D01*
X320364Y265365D01*
X320206Y265495D01*
X320374Y265966D01*
X443329D01*
X443989Y265305D01*
D02*
G37*
%LPC*%
G36*
X403295Y252795D02*
Y249358D01*
X406732D01*
X406662Y249894D01*
X406262Y250860D01*
X405626Y251689D01*
X404797Y252325D01*
X403831Y252725D01*
X403295Y252795D01*
D02*
G37*
G36*
X402295D02*
X401759Y252725D01*
X400794Y252325D01*
X399965Y251689D01*
X399329Y250860D01*
X398929Y249894D01*
X398858Y249358D01*
X402295D01*
Y252795D01*
D02*
G37*
G36*
X381173Y252827D02*
X377705D01*
Y249358D01*
X381173D01*
Y252827D01*
D02*
G37*
G36*
X376705D02*
X373236D01*
Y249358D01*
X376705D01*
Y252827D01*
D02*
G37*
G36*
X368295Y252795D02*
Y249358D01*
X371732D01*
X371661Y249894D01*
X371262Y250860D01*
X370626Y251689D01*
X369797Y252325D01*
X368831Y252725D01*
X368295Y252795D01*
D02*
G37*
G36*
X367295D02*
X366759Y252725D01*
X365794Y252325D01*
X364965Y251689D01*
X364329Y250860D01*
X363929Y249894D01*
X363858Y249358D01*
X367295D01*
Y252795D01*
D02*
G37*
G36*
X346173Y252827D02*
X342705D01*
Y249358D01*
X346173D01*
Y252827D01*
D02*
G37*
G36*
X341705D02*
X338236D01*
Y249358D01*
X341705D01*
Y252827D01*
D02*
G37*
G36*
X406732Y248358D02*
X403295D01*
Y244921D01*
X403831Y244992D01*
X404797Y245392D01*
X405626Y246028D01*
X406262Y246857D01*
X406662Y247822D01*
X406732Y248358D01*
D02*
G37*
G36*
X402295D02*
X398858D01*
X398929Y247822D01*
X399329Y246857D01*
X399965Y246028D01*
X400794Y245392D01*
X401759Y244992D01*
X402295Y244921D01*
Y248358D01*
D02*
G37*
G36*
X371732D02*
X368295D01*
Y244921D01*
X368831Y244992D01*
X369797Y245392D01*
X370626Y246028D01*
X371262Y246857D01*
X371661Y247822D01*
X371732Y248358D01*
D02*
G37*
G36*
X367295D02*
X363858D01*
X363929Y247822D01*
X364329Y246857D01*
X364965Y246028D01*
X365794Y245392D01*
X366759Y244992D01*
X367295Y244921D01*
Y248358D01*
D02*
G37*
G36*
X381173D02*
X377705D01*
Y244890D01*
X381173D01*
Y248358D01*
D02*
G37*
G36*
X376705D02*
X373236D01*
Y244890D01*
X376705D01*
Y248358D01*
D02*
G37*
G36*
X346173D02*
X342705D01*
Y244890D01*
X346173D01*
Y248358D01*
D02*
G37*
G36*
X341705D02*
X338236D01*
Y244890D01*
X341705D01*
Y248358D01*
D02*
G37*
G36*
X402795Y234943D02*
X401811Y234813D01*
X400895Y234434D01*
X400107Y233829D01*
X399503Y233042D01*
X399124Y232126D01*
X398994Y231142D01*
X399124Y230158D01*
X399503Y229241D01*
X400107Y228454D01*
X400895Y227850D01*
X401811Y227470D01*
X402795Y227341D01*
X403779Y227470D01*
X404696Y227850D01*
X405483Y228454D01*
X406087Y229241D01*
X406467Y230158D01*
X406596Y231142D01*
X406467Y232126D01*
X406087Y233042D01*
X405483Y233829D01*
X404696Y234434D01*
X403779Y234813D01*
X402795Y234943D01*
D02*
G37*
G36*
X377205D02*
X376221Y234813D01*
X375304Y234434D01*
X374517Y233829D01*
X373913Y233042D01*
X373533Y232126D01*
X373404Y231142D01*
X373533Y230158D01*
X373913Y229241D01*
X374517Y228454D01*
X375304Y227850D01*
X376221Y227470D01*
X377205Y227341D01*
X378189Y227470D01*
X379105Y227850D01*
X379892Y228454D01*
X380497Y229241D01*
X380876Y230158D01*
X381006Y231142D01*
X380876Y232126D01*
X380497Y233042D01*
X379892Y233829D01*
X379105Y234434D01*
X378189Y234813D01*
X377205Y234943D01*
D02*
G37*
G36*
X367795D02*
X366811Y234813D01*
X365895Y234434D01*
X365107Y233829D01*
X364503Y233042D01*
X364124Y232126D01*
X363994Y231142D01*
X364124Y230158D01*
X364503Y229241D01*
X365107Y228454D01*
X365895Y227850D01*
X366811Y227470D01*
X367795Y227341D01*
X368779Y227470D01*
X369696Y227850D01*
X370483Y228454D01*
X371087Y229241D01*
X371467Y230158D01*
X371596Y231142D01*
X371467Y232126D01*
X371087Y233042D01*
X370483Y233829D01*
X369696Y234434D01*
X368779Y234813D01*
X367795Y234943D01*
D02*
G37*
G36*
X342205D02*
X341221Y234813D01*
X340304Y234434D01*
X339517Y233829D01*
X338913Y233042D01*
X338533Y232126D01*
X338404Y231142D01*
X338533Y230158D01*
X338913Y229241D01*
X339517Y228454D01*
X340304Y227850D01*
X341221Y227470D01*
X342205Y227341D01*
X343189Y227470D01*
X344105Y227850D01*
X344893Y228454D01*
X345497Y229241D01*
X345876Y230158D01*
X346006Y231142D01*
X345876Y232126D01*
X345497Y233042D01*
X344893Y233829D01*
X344105Y234434D01*
X343189Y234813D01*
X342205Y234943D01*
D02*
G37*
G36*
X211575Y214172D02*
X210500D01*
Y210500D01*
X214172D01*
Y211575D01*
X214083Y212247D01*
X213824Y212873D01*
X213411Y213411D01*
X212873Y213824D01*
X212247Y214083D01*
X211575Y214172D01*
D02*
G37*
G36*
X209500D02*
X208425D01*
X207753Y214083D01*
X207127Y213824D01*
X206589Y213411D01*
X206176Y212873D01*
X205917Y212247D01*
X205828Y211575D01*
Y210500D01*
X209500D01*
Y214172D01*
D02*
G37*
G36*
X214172Y209500D02*
X210500D01*
Y205828D01*
X211575D01*
X212247Y205917D01*
X212873Y206176D01*
X213411Y206589D01*
X213824Y207127D01*
X214083Y207753D01*
X214172Y208425D01*
Y209500D01*
D02*
G37*
G36*
X209500D02*
X205828D01*
Y208425D01*
X205917Y207753D01*
X206176Y207127D01*
X206589Y206589D01*
X207127Y206176D01*
X207753Y205917D01*
X208425Y205828D01*
X209500D01*
Y209500D01*
D02*
G37*
G36*
X210000Y203984D02*
X208969Y203848D01*
X208008Y203450D01*
X207183Y202817D01*
X206550Y201992D01*
X206152Y201031D01*
X206016Y200000D01*
X206152Y198969D01*
X206550Y198008D01*
X207183Y197183D01*
X208008Y196550D01*
X208969Y196152D01*
X210000Y196016D01*
X211031Y196152D01*
X211992Y196550D01*
X212817Y197183D01*
X213450Y198008D01*
X213848Y198969D01*
X213984Y200000D01*
X213848Y201031D01*
X213450Y201992D01*
X212817Y202817D01*
X211992Y203450D01*
X211031Y203848D01*
X210000Y203984D01*
D02*
G37*
G36*
Y183984D02*
X208969Y183848D01*
X208008Y183450D01*
X207183Y182817D01*
X206550Y181992D01*
X206152Y181031D01*
X206016Y180000D01*
X206152Y178969D01*
X206550Y178008D01*
X207183Y177183D01*
X208008Y176550D01*
X208969Y176152D01*
X210000Y176016D01*
X211031Y176152D01*
X211992Y176550D01*
X212817Y177183D01*
X213450Y178008D01*
X213848Y178969D01*
X213984Y180000D01*
X213848Y181031D01*
X213450Y181992D01*
X212817Y182817D01*
X211992Y183450D01*
X211031Y183848D01*
X210000Y183984D01*
D02*
G37*
G36*
X403960Y158959D02*
X396041D01*
Y151041D01*
X403960D01*
Y158959D01*
D02*
G37*
G36*
X400000Y148994D02*
X398966Y148857D01*
X398003Y148459D01*
X397176Y147824D01*
X396541Y146997D01*
X396143Y146034D01*
X396006Y145000D01*
X396143Y143966D01*
X396541Y143003D01*
X397176Y142176D01*
X398003Y141541D01*
X398966Y141142D01*
X400000Y141006D01*
X401034Y141142D01*
X401997Y141541D01*
X402824Y142176D01*
X403459Y143003D01*
X403858Y143966D01*
X403994Y145000D01*
X403858Y146034D01*
X403459Y146997D01*
X402824Y147824D01*
X401997Y148459D01*
X401034Y148857D01*
X400000Y148994D01*
D02*
G37*
G36*
X340000D02*
X338966Y148857D01*
X338003Y148459D01*
X337176Y147824D01*
X336541Y146997D01*
X336142Y146034D01*
X336006Y145000D01*
X336142Y143966D01*
X336541Y143003D01*
X337176Y142176D01*
X338003Y141541D01*
X338966Y141142D01*
X340000Y141006D01*
X341034Y141142D01*
X341997Y141541D01*
X342824Y142176D01*
X343459Y143003D01*
X343858Y143966D01*
X343994Y145000D01*
X343858Y146034D01*
X343459Y146997D01*
X342824Y147824D01*
X341997Y148459D01*
X341034Y148857D01*
X340000Y148994D01*
D02*
G37*
G36*
X400000Y138994D02*
X398966Y138857D01*
X398003Y138459D01*
X397176Y137824D01*
X396541Y136997D01*
X396143Y136034D01*
X396006Y135000D01*
X396143Y133966D01*
X396541Y133003D01*
X397176Y132176D01*
X398003Y131541D01*
X398966Y131142D01*
X400000Y131006D01*
X401034Y131142D01*
X401997Y131541D01*
X402824Y132176D01*
X403459Y133003D01*
X403858Y133966D01*
X403994Y135000D01*
X403858Y136034D01*
X403459Y136997D01*
X402824Y137824D01*
X401997Y138459D01*
X401034Y138857D01*
X400000Y138994D01*
D02*
G37*
G36*
X340000D02*
X338966Y138857D01*
X338003Y138459D01*
X337176Y137824D01*
X336541Y136997D01*
X336142Y136034D01*
X336006Y135000D01*
X336142Y133966D01*
X336541Y133003D01*
X337176Y132176D01*
X338003Y131541D01*
X338966Y131142D01*
X340000Y131006D01*
X341034Y131142D01*
X341997Y131541D01*
X342824Y132176D01*
X343459Y133003D01*
X343858Y133966D01*
X343994Y135000D01*
X343858Y136034D01*
X343459Y136997D01*
X342824Y137824D01*
X341997Y138459D01*
X341034Y138857D01*
X340000Y138994D01*
D02*
G37*
G36*
X231575Y129172D02*
X230500D01*
Y125500D01*
X234172D01*
Y126575D01*
X234083Y127247D01*
X233824Y127873D01*
X233411Y128411D01*
X232873Y128824D01*
X232247Y129083D01*
X231575Y129172D01*
D02*
G37*
G36*
X229500D02*
X228425D01*
X227753Y129083D01*
X227127Y128824D01*
X226589Y128411D01*
X226176Y127873D01*
X225917Y127247D01*
X225828Y126575D01*
Y125500D01*
X229500D01*
Y129172D01*
D02*
G37*
G36*
X315000Y137586D02*
X313520Y137441D01*
X312097Y137009D01*
X310785Y136308D01*
X309635Y135364D01*
X308692Y134215D01*
X307991Y132903D01*
X307559Y131480D01*
X307414Y130000D01*
X307559Y128520D01*
X307991Y127097D01*
X308692Y125785D01*
X309635Y124636D01*
X310785Y123692D01*
X312097Y122991D01*
X313520Y122559D01*
X315000Y122414D01*
X316480Y122559D01*
X317903Y122991D01*
X319215Y123692D01*
X320364Y124636D01*
X321308Y125785D01*
X322009Y127097D01*
X322441Y128520D01*
X322586Y130000D01*
X322441Y131480D01*
X322009Y132903D01*
X321308Y134215D01*
X320364Y135364D01*
X319215Y136308D01*
X317903Y137009D01*
X316480Y137441D01*
X315000Y137586D01*
D02*
G37*
G36*
X215000D02*
X213520Y137441D01*
X212097Y137009D01*
X210785Y136308D01*
X209635Y135364D01*
X208692Y134215D01*
X207991Y132903D01*
X207559Y131480D01*
X207414Y130000D01*
X207559Y128520D01*
X207991Y127097D01*
X208692Y125785D01*
X209635Y124636D01*
X210785Y123692D01*
X212097Y122991D01*
X213520Y122559D01*
X215000Y122414D01*
X216480Y122559D01*
X217903Y122991D01*
X219215Y123692D01*
X220364Y124636D01*
X221308Y125785D01*
X222009Y127097D01*
X222441Y128520D01*
X222586Y130000D01*
X222441Y131480D01*
X222009Y132903D01*
X221308Y134215D01*
X220364Y135364D01*
X219215Y136308D01*
X217903Y137009D01*
X216480Y137441D01*
X215000Y137586D01*
D02*
G37*
G36*
X270000Y128984D02*
X268969Y128848D01*
X268008Y128450D01*
X267183Y127817D01*
X266550Y126992D01*
X266152Y126031D01*
X266016Y125000D01*
X266152Y123969D01*
X266550Y123008D01*
X267183Y122183D01*
X268008Y121550D01*
X268969Y121152D01*
X270000Y121016D01*
X271031Y121152D01*
X271992Y121550D01*
X272817Y122183D01*
X273450Y123008D01*
X273848Y123969D01*
X273984Y125000D01*
X273848Y126031D01*
X273450Y126992D01*
X272817Y127817D01*
X271992Y128450D01*
X271031Y128848D01*
X270000Y128984D01*
D02*
G37*
G36*
X260000D02*
X258969Y128848D01*
X258008Y128450D01*
X257183Y127817D01*
X256550Y126992D01*
X256152Y126031D01*
X256016Y125000D01*
X256152Y123969D01*
X256550Y123008D01*
X257183Y122183D01*
X258008Y121550D01*
X258969Y121152D01*
X260000Y121016D01*
X261031Y121152D01*
X261992Y121550D01*
X262817Y122183D01*
X263450Y123008D01*
X263848Y123969D01*
X263984Y125000D01*
X263848Y126031D01*
X263450Y126992D01*
X262817Y127817D01*
X261992Y128450D01*
X261031Y128848D01*
X260000Y128984D01*
D02*
G37*
G36*
X250000D02*
X248969Y128848D01*
X248008Y128450D01*
X247183Y127817D01*
X246550Y126992D01*
X246152Y126031D01*
X246016Y125000D01*
X246152Y123969D01*
X246550Y123008D01*
X247183Y122183D01*
X248008Y121550D01*
X248969Y121152D01*
X250000Y121016D01*
X251031Y121152D01*
X251992Y121550D01*
X252817Y122183D01*
X253450Y123008D01*
X253848Y123969D01*
X253984Y125000D01*
X253848Y126031D01*
X253450Y126992D01*
X252817Y127817D01*
X251992Y128450D01*
X251031Y128848D01*
X250000Y128984D01*
D02*
G37*
G36*
X240000D02*
X238969Y128848D01*
X238008Y128450D01*
X237183Y127817D01*
X236550Y126992D01*
X236152Y126031D01*
X236016Y125000D01*
X236152Y123969D01*
X236550Y123008D01*
X237183Y122183D01*
X238008Y121550D01*
X238969Y121152D01*
X240000Y121016D01*
X241031Y121152D01*
X241992Y121550D01*
X242817Y122183D01*
X243450Y123008D01*
X243848Y123969D01*
X243984Y125000D01*
X243848Y126031D01*
X243450Y126992D01*
X242817Y127817D01*
X241992Y128450D01*
X241031Y128848D01*
X240000Y128984D01*
D02*
G37*
G36*
X400000Y128994D02*
X398966Y128858D01*
X398003Y128459D01*
X397176Y127824D01*
X396541Y126997D01*
X396143Y126034D01*
X396006Y125000D01*
X396143Y123966D01*
X396541Y123003D01*
X397176Y122176D01*
X398003Y121541D01*
X398966Y121142D01*
X400000Y121006D01*
X401034Y121142D01*
X401997Y121541D01*
X402824Y122176D01*
X403459Y123003D01*
X403858Y123966D01*
X403994Y125000D01*
X403858Y126034D01*
X403459Y126997D01*
X402824Y127824D01*
X401997Y128459D01*
X401034Y128858D01*
X400000Y128994D01*
D02*
G37*
G36*
X340000D02*
X338966Y128858D01*
X338003Y128459D01*
X337176Y127824D01*
X336541Y126997D01*
X336142Y126034D01*
X336006Y125000D01*
X336142Y123966D01*
X336541Y123003D01*
X337176Y122176D01*
X338003Y121541D01*
X338966Y121142D01*
X340000Y121006D01*
X341034Y121142D01*
X341997Y121541D01*
X342824Y122176D01*
X343459Y123003D01*
X343858Y123966D01*
X343994Y125000D01*
X343858Y126034D01*
X343459Y126997D01*
X342824Y127824D01*
X341997Y128459D01*
X341034Y128858D01*
X340000Y128994D01*
D02*
G37*
G36*
X234172Y124500D02*
X230500D01*
Y120828D01*
X231575D01*
X232247Y120917D01*
X232873Y121176D01*
X233411Y121589D01*
X233824Y122127D01*
X234083Y122753D01*
X234172Y123425D01*
Y124500D01*
D02*
G37*
G36*
X229500D02*
X225828D01*
Y123425D01*
X225917Y122753D01*
X226176Y122127D01*
X226589Y121589D01*
X227127Y121176D01*
X227753Y120917D01*
X228425Y120828D01*
X229500D01*
Y124500D01*
D02*
G37*
G36*
X400000Y118994D02*
X398966Y118858D01*
X398003Y118459D01*
X397176Y117824D01*
X396541Y116997D01*
X396143Y116034D01*
X396006Y115000D01*
X396143Y113966D01*
X396541Y113003D01*
X397176Y112176D01*
X398003Y111541D01*
X398966Y111143D01*
X400000Y111006D01*
X401034Y111143D01*
X401997Y111541D01*
X402824Y112176D01*
X403459Y113003D01*
X403858Y113966D01*
X403994Y115000D01*
X403858Y116034D01*
X403459Y116997D01*
X402824Y117824D01*
X401997Y118459D01*
X401034Y118858D01*
X400000Y118994D01*
D02*
G37*
G36*
X210000Y193984D02*
X208969Y193848D01*
X208008Y193450D01*
X207183Y192817D01*
X206550Y191992D01*
X206152Y191031D01*
X206016Y190000D01*
X206152Y188969D01*
X206550Y188008D01*
X207183Y187183D01*
X208008Y186550D01*
X208969Y186152D01*
X210000Y186016D01*
X211031Y186152D01*
X211992Y186550D01*
X212817Y187183D01*
X213450Y188008D01*
X213726Y188674D01*
X312891D01*
X342144Y159421D01*
X341953Y158959D01*
X336040D01*
Y156325D01*
X320000D01*
X319493Y156225D01*
X319063Y155937D01*
X291697Y128572D01*
X291031Y128848D01*
X290000Y128984D01*
X288969Y128848D01*
X288008Y128450D01*
X287183Y127817D01*
X286550Y126992D01*
X286152Y126031D01*
X286016Y125000D01*
X286152Y123969D01*
X286550Y123008D01*
X287183Y122183D01*
X288008Y121550D01*
X288969Y121152D01*
X290000Y121016D01*
X291031Y121152D01*
X291992Y121550D01*
X292817Y122183D01*
X293450Y123008D01*
X293848Y123969D01*
X293984Y125000D01*
X293848Y126031D01*
X293572Y126697D01*
X320549Y153674D01*
X336040D01*
Y151041D01*
X343959D01*
Y156953D01*
X344421Y157144D01*
X345334Y156232D01*
Y108783D01*
X344872Y108592D01*
X342343Y111121D01*
Y111807D01*
X342824Y112176D01*
X343459Y113003D01*
X343858Y113966D01*
X343994Y115000D01*
X343858Y116034D01*
X343459Y116997D01*
X342824Y117824D01*
X341997Y118459D01*
X341034Y118858D01*
X340000Y118994D01*
X338966Y118858D01*
X338003Y118459D01*
X337176Y117824D01*
X336541Y116997D01*
X336142Y116034D01*
X336006Y115000D01*
X336142Y113966D01*
X336541Y113003D01*
X337176Y112176D01*
X338003Y111541D01*
X338966Y111143D01*
X339692Y111047D01*
Y110572D01*
X339793Y110065D01*
X339793Y110065D01*
X340080Y109634D01*
X340081Y109634D01*
X340281Y109434D01*
X340060Y108986D01*
X340000Y108994D01*
X338966Y108858D01*
X338295Y108580D01*
X329137Y117737D01*
X328707Y118025D01*
X328200Y118125D01*
X308749D01*
X303572Y123303D01*
X303848Y123969D01*
X303984Y125000D01*
X303848Y126031D01*
X303450Y126992D01*
X302817Y127817D01*
X301992Y128450D01*
X301031Y128848D01*
X300000Y128984D01*
X298969Y128848D01*
X298008Y128450D01*
X297183Y127817D01*
X296550Y126992D01*
X296152Y126031D01*
X296016Y125000D01*
X296152Y123969D01*
X296550Y123008D01*
X297183Y122183D01*
X298008Y121550D01*
X298969Y121152D01*
X300000Y121016D01*
X301031Y121152D01*
X301697Y121428D01*
X307263Y115863D01*
X307693Y115575D01*
X308200Y115474D01*
X327651D01*
X336420Y106705D01*
X336142Y106034D01*
X336006Y105000D01*
X336142Y103966D01*
X336541Y103003D01*
X337176Y102176D01*
X337224Y102139D01*
X337063Y101666D01*
X324401D01*
X317460Y108607D01*
X317029Y108895D01*
X316522Y108996D01*
X297879D01*
X283572Y123303D01*
X283848Y123969D01*
X283984Y125000D01*
X283848Y126031D01*
X283450Y126992D01*
X282817Y127817D01*
X281992Y128450D01*
X281031Y128848D01*
X280000Y128984D01*
X278969Y128848D01*
X278008Y128450D01*
X277183Y127817D01*
X276550Y126992D01*
X276152Y126031D01*
X276016Y125000D01*
X276152Y123969D01*
X276550Y123008D01*
X277183Y122183D01*
X278008Y121550D01*
X278969Y121152D01*
X280000Y121016D01*
X281031Y121152D01*
X281697Y121428D01*
X296392Y106733D01*
X296823Y106446D01*
X297330Y106345D01*
X315600D01*
X315650Y106266D01*
X315358Y105793D01*
X315000Y105828D01*
X313863Y105716D01*
X312770Y105384D01*
X311762Y104846D01*
X310879Y104121D01*
X310154Y103238D01*
X309616Y102230D01*
X309284Y101137D01*
X309172Y100000D01*
X309284Y98863D01*
X309616Y97770D01*
X310154Y96762D01*
X310879Y95879D01*
X311762Y95154D01*
X312770Y94616D01*
X313863Y94284D01*
X315000Y94172D01*
X316137Y94284D01*
X317230Y94616D01*
X318238Y95154D01*
X319121Y95879D01*
X319846Y96762D01*
X320384Y97770D01*
X320716Y98863D01*
X320828Y100000D01*
X320743Y100868D01*
X321223Y101095D01*
X322915Y99403D01*
X323345Y99116D01*
X323852Y99015D01*
X338040D01*
X338140Y98515D01*
X338003Y98459D01*
X337176Y97824D01*
X336541Y96997D01*
X336142Y96034D01*
X336006Y95000D01*
X336142Y93966D01*
X336541Y93003D01*
X337176Y92176D01*
X338003Y91541D01*
X338966Y91142D01*
X340000Y91006D01*
X341034Y91142D01*
X341997Y91541D01*
X342824Y92176D01*
X343459Y93003D01*
X343858Y93966D01*
X343994Y95000D01*
X343858Y96034D01*
X343580Y96705D01*
X347597Y100722D01*
X347884Y101152D01*
X347985Y101659D01*
Y156781D01*
X347884Y157288D01*
X347597Y157718D01*
X314377Y190937D01*
X313947Y191225D01*
X313440Y191325D01*
X213726D01*
X213450Y191992D01*
X212817Y192817D01*
X211992Y193450D01*
X211031Y193848D01*
X210000Y193984D01*
D02*
G37*
G36*
X400000Y108994D02*
X398966Y108858D01*
X398003Y108459D01*
X397176Y107824D01*
X396541Y106997D01*
X396143Y106034D01*
X396006Y105000D01*
X396143Y103966D01*
X396541Y103003D01*
X397176Y102176D01*
X398003Y101541D01*
X398966Y101143D01*
X400000Y101006D01*
X401034Y101143D01*
X401997Y101541D01*
X402824Y102176D01*
X403459Y103003D01*
X403858Y103966D01*
X403994Y105000D01*
X403858Y106034D01*
X403459Y106997D01*
X402824Y107824D01*
X401997Y108459D01*
X401034Y108858D01*
X400000Y108994D01*
D02*
G37*
G36*
X35940Y109671D02*
X34446Y109474D01*
X33055Y108898D01*
X31859Y107981D01*
X30942Y106785D01*
X30366Y105394D01*
X30169Y103900D01*
X30366Y102406D01*
X30942Y101015D01*
X31859Y99819D01*
X33055Y98902D01*
X34446Y98326D01*
X35940Y98129D01*
X37434Y98326D01*
X38825Y98902D01*
X40021Y99819D01*
X40938Y101015D01*
X41514Y102406D01*
X41711Y103900D01*
X41514Y105394D01*
X40938Y106785D01*
X40021Y107981D01*
X38825Y108898D01*
X37434Y109474D01*
X35940Y109671D01*
D02*
G37*
G36*
X188300Y109621D02*
X186806Y109424D01*
X185415Y108848D01*
X184219Y107931D01*
X183302Y106735D01*
X182726Y105344D01*
X182529Y103850D01*
X182726Y102356D01*
X183302Y100965D01*
X184219Y99769D01*
X185415Y98852D01*
X186806Y98276D01*
X188300Y98079D01*
X189794Y98276D01*
X191185Y98852D01*
X192381Y99769D01*
X193298Y100965D01*
X193874Y102356D01*
X194071Y103850D01*
X193874Y105344D01*
X193298Y106735D01*
X192381Y107931D01*
X191185Y108848D01*
X189794Y109424D01*
X188300Y109621D01*
D02*
G37*
G36*
X220000Y105828D02*
X218863Y105716D01*
X217770Y105384D01*
X216762Y104846D01*
X215879Y104121D01*
X215154Y103238D01*
X214616Y102230D01*
X214284Y101137D01*
X214172Y100000D01*
X214284Y98863D01*
X214616Y97770D01*
X215154Y96762D01*
X215879Y95879D01*
X216762Y95154D01*
X217770Y94616D01*
X218863Y94284D01*
X220000Y94172D01*
X221137Y94284D01*
X222230Y94616D01*
X223238Y95154D01*
X224121Y95879D01*
X224846Y96762D01*
X225384Y97770D01*
X225716Y98863D01*
X225828Y100000D01*
X225716Y101137D01*
X225384Y102230D01*
X224846Y103238D01*
X224121Y104121D01*
X223238Y104846D01*
X222230Y105384D01*
X221137Y105716D01*
X220000Y105828D01*
D02*
G37*
G36*
X400000Y98994D02*
X398966Y98857D01*
X398003Y98459D01*
X397176Y97824D01*
X396541Y96997D01*
X396143Y96034D01*
X396006Y95000D01*
X396143Y93966D01*
X396541Y93003D01*
X397176Y92176D01*
X398003Y91541D01*
X398966Y91142D01*
X400000Y91006D01*
X401034Y91142D01*
X401997Y91541D01*
X402824Y92176D01*
X403459Y93003D01*
X403858Y93966D01*
X403994Y95000D01*
X403858Y96034D01*
X403459Y96997D01*
X402824Y97824D01*
X401997Y98459D01*
X401034Y98857D01*
X400000Y98994D01*
D02*
G37*
G36*
X340000Y88994D02*
X338966Y88858D01*
X338003Y88459D01*
X337176Y87824D01*
X336541Y86997D01*
X336142Y86034D01*
X336006Y85000D01*
X336142Y83966D01*
X336541Y83003D01*
X337176Y82176D01*
X338003Y81541D01*
X338966Y81142D01*
X340000Y81006D01*
X341034Y81142D01*
X341997Y81541D01*
X342824Y82176D01*
X343459Y83003D01*
X343858Y83966D01*
X343994Y85000D01*
X343858Y86034D01*
X343459Y86997D01*
X342824Y87824D01*
X341997Y88459D01*
X341034Y88858D01*
X340000Y88994D01*
D02*
G37*
G36*
X399500Y79129D02*
X398914Y79052D01*
X397902Y78633D01*
X397033Y77966D01*
X396367Y77098D01*
X395948Y76086D01*
X395870Y75500D01*
X399500D01*
Y79129D01*
D02*
G37*
G36*
X442969Y75051D02*
X440500D01*
Y72583D01*
X442969D01*
Y75051D01*
D02*
G37*
G36*
X340000Y78994D02*
X338966Y78857D01*
X338003Y78459D01*
X337176Y77824D01*
X336541Y76997D01*
X336142Y76034D01*
X336006Y75000D01*
X336142Y73966D01*
X336541Y73003D01*
X337176Y72176D01*
X338003Y71541D01*
X338966Y71143D01*
X340000Y71006D01*
X341034Y71143D01*
X341997Y71541D01*
X342824Y72176D01*
X343459Y73003D01*
X343858Y73966D01*
X343994Y75000D01*
X343858Y76034D01*
X343459Y76997D01*
X342824Y77824D01*
X341997Y78459D01*
X341034Y78857D01*
X340000Y78994D01*
D02*
G37*
G36*
X399500Y74500D02*
X395870D01*
X395948Y73914D01*
X396367Y72902D01*
X397033Y72034D01*
X397902Y71367D01*
X398914Y70948D01*
X399500Y70871D01*
Y74500D01*
D02*
G37*
G36*
Y69130D02*
X398914Y69052D01*
X397902Y68633D01*
X397033Y67967D01*
X396367Y67098D01*
X395948Y66086D01*
X395870Y65500D01*
X399500D01*
Y69130D01*
D02*
G37*
G36*
X340000Y68994D02*
X338966Y68858D01*
X338003Y68459D01*
X337176Y67824D01*
X336541Y66997D01*
X336142Y66034D01*
X336006Y65000D01*
X336142Y63966D01*
X336541Y63003D01*
X337176Y62176D01*
X338003Y61541D01*
X338966Y61142D01*
X340000Y61006D01*
X341034Y61142D01*
X341997Y61541D01*
X342824Y62176D01*
X343459Y63003D01*
X343858Y63966D01*
X343994Y65000D01*
X343858Y66034D01*
X343459Y66997D01*
X342824Y67824D01*
X341997Y68459D01*
X341034Y68858D01*
X340000Y68994D01*
D02*
G37*
G36*
X399500Y64500D02*
X395870D01*
X395948Y63914D01*
X396367Y62902D01*
X397033Y62033D01*
X397902Y61367D01*
X398914Y60948D01*
X399500Y60870D01*
Y64500D01*
D02*
G37*
G36*
X340500Y59130D02*
Y55500D01*
X344129D01*
X344052Y56086D01*
X343633Y57098D01*
X342967Y57967D01*
X342098Y58633D01*
X341086Y59052D01*
X340500Y59130D01*
D02*
G37*
G36*
X339500D02*
X338914Y59052D01*
X337902Y58633D01*
X337033Y57967D01*
X336367Y57098D01*
X335948Y56086D01*
X335871Y55500D01*
X339500D01*
Y59130D01*
D02*
G37*
G36*
X344129Y54500D02*
X340500D01*
Y50871D01*
X341086Y50948D01*
X342098Y51367D01*
X342967Y52034D01*
X343633Y52902D01*
X344052Y53914D01*
X344129Y54500D01*
D02*
G37*
G36*
X339500D02*
X335871D01*
X335948Y53914D01*
X336367Y52902D01*
X337033Y52034D01*
X337902Y51367D01*
X338914Y50948D01*
X339500Y50871D01*
Y54500D01*
D02*
G37*
G36*
X92626Y48565D02*
Y45500D01*
X95691D01*
X95633Y45940D01*
X95271Y46815D01*
X94694Y47567D01*
X93941Y48145D01*
X93066Y48507D01*
X92626Y48565D01*
D02*
G37*
G36*
X273000Y49120D02*
Y45500D01*
X276620D01*
X276543Y46083D01*
X276125Y47093D01*
X275460Y47960D01*
X274593Y48625D01*
X273583Y49043D01*
X273000Y49120D01*
D02*
G37*
G36*
X272000D02*
X271417Y49043D01*
X270407Y48625D01*
X269541Y47960D01*
X268875Y47093D01*
X268457Y46083D01*
X268380Y45500D01*
X272000D01*
Y49120D01*
D02*
G37*
G36*
X91626Y48565D02*
X91186Y48507D01*
X90311Y48145D01*
X89559Y47567D01*
X88981Y46815D01*
X88619Y45940D01*
X88561Y45500D01*
X91626D01*
Y48565D01*
D02*
G37*
G36*
X95691Y44500D02*
X92626D01*
Y41435D01*
X93066Y41493D01*
X93941Y41855D01*
X94694Y42432D01*
X95271Y43185D01*
X95633Y44060D01*
X95691Y44500D01*
D02*
G37*
G36*
X91626D02*
X88561D01*
X88619Y44060D01*
X88981Y43185D01*
X89559Y42432D01*
X90311Y41855D01*
X91186Y41493D01*
X91626Y41435D01*
Y44500D01*
D02*
G37*
G36*
X292500Y48984D02*
X291469Y48848D01*
X290508Y48450D01*
X289683Y47817D01*
X289050Y46992D01*
X288652Y46031D01*
X288516Y45000D01*
X288652Y43969D01*
X289050Y43008D01*
X289683Y42183D01*
X290508Y41550D01*
X291469Y41152D01*
X292500Y41016D01*
X293531Y41152D01*
X294492Y41550D01*
X295317Y42183D01*
X295950Y43008D01*
X296348Y43969D01*
X296484Y45000D01*
X296348Y46031D01*
X295950Y46992D01*
X295317Y47817D01*
X294492Y48450D01*
X293531Y48848D01*
X292500Y48984D01*
D02*
G37*
G36*
X262500D02*
X261469Y48848D01*
X260508Y48450D01*
X259683Y47817D01*
X259050Y46992D01*
X258652Y46031D01*
X258516Y45000D01*
X258652Y43969D01*
X259050Y43008D01*
X259683Y42183D01*
X260508Y41550D01*
X261469Y41152D01*
X262500Y41016D01*
X263531Y41152D01*
X264492Y41550D01*
X265317Y42183D01*
X265950Y43008D01*
X266348Y43969D01*
X266484Y45000D01*
X266348Y46031D01*
X265950Y46992D01*
X265317Y47817D01*
X264492Y48450D01*
X263531Y48848D01*
X262500Y48984D01*
D02*
G37*
G36*
X252500D02*
X251469Y48848D01*
X250508Y48450D01*
X249683Y47817D01*
X249050Y46992D01*
X248652Y46031D01*
X248516Y45000D01*
X248652Y43969D01*
X249050Y43008D01*
X249683Y42183D01*
X250508Y41550D01*
X251469Y41152D01*
X252500Y41016D01*
X253531Y41152D01*
X254492Y41550D01*
X255317Y42183D01*
X255950Y43008D01*
X256348Y43969D01*
X256484Y45000D01*
X256348Y46031D01*
X255950Y46992D01*
X255317Y47817D01*
X254492Y48450D01*
X253531Y48848D01*
X252500Y48984D01*
D02*
G37*
G36*
X242500D02*
X241469Y48848D01*
X240508Y48450D01*
X239683Y47817D01*
X239050Y46992D01*
X238652Y46031D01*
X238516Y45000D01*
X238652Y43969D01*
X239050Y43008D01*
X239683Y42183D01*
X240508Y41550D01*
X241469Y41152D01*
X242500Y41016D01*
X243531Y41152D01*
X244492Y41550D01*
X245317Y42183D01*
X245950Y43008D01*
X246348Y43969D01*
X246484Y45000D01*
X246348Y46031D01*
X245950Y46992D01*
X245317Y47817D01*
X244492Y48450D01*
X243531Y48848D01*
X242500Y48984D01*
D02*
G37*
G36*
X340000Y48994D02*
X338966Y48858D01*
X338003Y48459D01*
X337176Y47824D01*
X336541Y46997D01*
X336142Y46034D01*
X336006Y45000D01*
X336142Y43966D01*
X336541Y43003D01*
X337176Y42176D01*
X338003Y41541D01*
X338966Y41142D01*
X340000Y41006D01*
X341034Y41142D01*
X341997Y41541D01*
X342824Y42176D01*
X343459Y43003D01*
X343858Y43966D01*
X343994Y45000D01*
X343858Y46034D01*
X343459Y46997D01*
X342824Y47824D01*
X341997Y48459D01*
X341034Y48858D01*
X340000Y48994D01*
D02*
G37*
G36*
X276620Y44500D02*
X273000D01*
Y40880D01*
X273583Y40957D01*
X274593Y41375D01*
X275460Y42041D01*
X276125Y42907D01*
X276543Y43917D01*
X276620Y44500D01*
D02*
G37*
G36*
X272000D02*
X268380D01*
X268457Y43917D01*
X268875Y42907D01*
X269541Y42041D01*
X270407Y41375D01*
X271417Y40957D01*
X272000Y40880D01*
Y44500D01*
D02*
G37*
G36*
X220000Y50828D02*
X218863Y50716D01*
X217770Y50384D01*
X216762Y49846D01*
X215879Y49121D01*
X215154Y48238D01*
X214616Y47230D01*
X214284Y46137D01*
X214172Y45000D01*
X214284Y43863D01*
X214616Y42770D01*
X215154Y41762D01*
X215879Y40879D01*
X216762Y40154D01*
X217770Y39616D01*
X218863Y39284D01*
X220000Y39172D01*
X221137Y39284D01*
X222230Y39616D01*
X223238Y40154D01*
X224121Y40879D01*
X224846Y41762D01*
X225384Y42770D01*
X225716Y43863D01*
X225828Y45000D01*
X225716Y46137D01*
X225384Y47230D01*
X224846Y48238D01*
X224121Y49121D01*
X223238Y49846D01*
X222230Y50384D01*
X221137Y50716D01*
X220000Y50828D01*
D02*
G37*
G36*
X440000Y122635D02*
X439277Y122540D01*
X438604Y122261D01*
X438026Y121817D01*
X437582Y121239D01*
X437303Y120565D01*
X437208Y119843D01*
X437303Y119120D01*
X437332Y119049D01*
X404319Y86037D01*
X403785Y86209D01*
X403459Y86997D01*
X402824Y87824D01*
X401997Y88459D01*
X401034Y88858D01*
X400000Y88994D01*
X398966Y88858D01*
X398003Y88459D01*
X397176Y87824D01*
X396541Y86997D01*
X396143Y86034D01*
X396006Y85000D01*
X396143Y83966D01*
X396541Y83003D01*
X397176Y82176D01*
X398003Y81541D01*
X398966Y81142D01*
X400000Y81006D01*
X401034Y81142D01*
X401997Y81541D01*
X402674Y82061D01*
X403174Y81859D01*
Y78437D01*
X402674Y78191D01*
X402098Y78633D01*
X401086Y79052D01*
X400500Y79129D01*
Y75000D01*
Y70871D01*
X401086Y70948D01*
X402098Y71367D01*
X402674Y71809D01*
X403174Y71563D01*
Y68437D01*
X402674Y68191D01*
X402098Y68633D01*
X401086Y69052D01*
X400500Y69130D01*
Y65000D01*
Y60870D01*
X401086Y60948D01*
X402098Y61367D01*
X402674Y61809D01*
X403174Y61563D01*
Y60049D01*
X401705Y58579D01*
X401034Y58858D01*
X400000Y58994D01*
X398966Y58858D01*
X398003Y58459D01*
X397176Y57824D01*
X396541Y56997D01*
X396143Y56034D01*
X396006Y55000D01*
X396143Y53966D01*
X396541Y53003D01*
X397176Y52176D01*
X398003Y51541D01*
X398966Y51143D01*
X400000Y51006D01*
X401034Y51143D01*
X401997Y51541D01*
X402824Y52176D01*
X403459Y53003D01*
X403858Y53966D01*
X403994Y55000D01*
X403858Y56034D01*
X403580Y56705D01*
X405437Y58563D01*
X405725Y58993D01*
X405826Y59500D01*
Y83794D01*
X436732Y114700D01*
X437260Y114521D01*
X437303Y114199D01*
X437582Y113525D01*
X438026Y112947D01*
X438248Y112776D01*
Y112145D01*
X438026Y111975D01*
X437582Y111396D01*
X437303Y110723D01*
X437208Y110000D01*
X437303Y109277D01*
X437582Y108604D01*
X438026Y108026D01*
X438248Y107854D01*
Y107224D01*
X438026Y107053D01*
X437582Y106475D01*
X437303Y105801D01*
X437208Y105079D01*
X437303Y104356D01*
X437582Y103683D01*
X438026Y103104D01*
X438248Y102933D01*
Y102303D01*
X438026Y102132D01*
X437582Y101554D01*
X437303Y100880D01*
X437208Y100157D01*
X437303Y99435D01*
X437582Y98761D01*
X438026Y98183D01*
X438248Y98012D01*
Y97382D01*
X438026Y97211D01*
X437582Y96632D01*
X437303Y95959D01*
X437208Y95236D01*
X437303Y94513D01*
X437332Y94443D01*
X419663Y76774D01*
X419375Y76343D01*
X419275Y75836D01*
Y66149D01*
X401705Y48579D01*
X401034Y48858D01*
X400000Y48994D01*
X398966Y48858D01*
X398003Y48459D01*
X397176Y47824D01*
X396541Y46997D01*
X396143Y46034D01*
X396006Y45000D01*
X396143Y43966D01*
X396541Y43003D01*
X397176Y42176D01*
X398003Y41541D01*
X398966Y41142D01*
X400000Y41006D01*
X401034Y41142D01*
X401997Y41541D01*
X402824Y42176D01*
X403459Y43003D01*
X403858Y43966D01*
X403994Y45000D01*
X403858Y46034D01*
X403580Y46705D01*
X421537Y64663D01*
X421825Y65093D01*
X421925Y65600D01*
Y75287D01*
X436732Y90094D01*
X437260Y89915D01*
X437303Y89592D01*
X437582Y88919D01*
X438026Y88341D01*
X438248Y88169D01*
Y87539D01*
X438026Y87368D01*
X437582Y86790D01*
X437303Y86116D01*
X437208Y85394D01*
X437303Y84671D01*
X437582Y83998D01*
X438026Y83419D01*
X438248Y83248D01*
Y82618D01*
X438026Y82447D01*
X437582Y81869D01*
X437303Y81195D01*
X437208Y80472D01*
X436991Y80225D01*
X436700D01*
X436193Y80125D01*
X435763Y79837D01*
X435475Y79407D01*
X435374Y78900D01*
Y56330D01*
X435250D01*
X434645Y56210D01*
X434132Y55867D01*
X433790Y55355D01*
X433670Y54750D01*
Y53250D01*
X433784Y52673D01*
Y52250D01*
X433784Y52250D01*
X433846Y51938D01*
X434023Y51673D01*
X434024Y51672D01*
X434030Y51662D01*
X434067Y51508D01*
X434026Y51100D01*
X434013Y51067D01*
X433931Y50939D01*
X433846Y50812D01*
X433845Y50805D01*
X433841Y50799D01*
X433814Y50649D01*
X433784Y50500D01*
Y47327D01*
X433784Y47326D01*
X418800D01*
X418293Y47225D01*
X417863Y46937D01*
X404050Y33125D01*
X403626Y33408D01*
X403858Y33966D01*
X403994Y35000D01*
X403858Y36034D01*
X403459Y36997D01*
X402824Y37824D01*
X401997Y38459D01*
X401034Y38857D01*
X400000Y38994D01*
X398966Y38857D01*
X398003Y38459D01*
X397176Y37824D01*
X396541Y36997D01*
X396143Y36034D01*
X396006Y35000D01*
X396143Y33966D01*
X396541Y33003D01*
X397176Y32176D01*
X397224Y32140D01*
X397063Y31666D01*
X342937D01*
X342776Y32140D01*
X342824Y32176D01*
X343459Y33003D01*
X343858Y33966D01*
X343994Y35000D01*
X343858Y36034D01*
X343459Y36997D01*
X342824Y37824D01*
X341997Y38459D01*
X341034Y38857D01*
X340000Y38994D01*
X338966Y38857D01*
X338003Y38459D01*
X337176Y37824D01*
X336541Y36997D01*
X336142Y36034D01*
X336006Y35000D01*
X336014Y34940D01*
X335566Y34719D01*
X329207Y41078D01*
Y41311D01*
X329106Y41818D01*
X328818Y42248D01*
X318630Y52437D01*
X318200Y52725D01*
X317692Y52825D01*
X289000D01*
X288493Y52725D01*
X288063Y52437D01*
X284197Y48572D01*
X283531Y48848D01*
X282500Y48984D01*
X281469Y48848D01*
X280508Y48450D01*
X279683Y47817D01*
X279050Y46992D01*
X278652Y46031D01*
X278516Y45000D01*
X278652Y43969D01*
X279050Y43008D01*
X279683Y42183D01*
X280508Y41550D01*
X281174Y41274D01*
Y29100D01*
X280450D01*
X278400Y27050D01*
Y22950D01*
X278488Y22862D01*
X273101Y17476D01*
X151299D01*
X150250Y18525D01*
Y24675D01*
X176284D01*
X176290Y24645D01*
X176632Y24133D01*
X177145Y23790D01*
X177750Y23670D01*
X182250D01*
X182855Y23790D01*
X183368Y24133D01*
X183710Y24645D01*
X183830Y25250D01*
Y26750D01*
X183716Y27327D01*
Y27750D01*
X183716Y27750D01*
X183654Y28062D01*
X183477Y28327D01*
X183476Y28328D01*
X183470Y28338D01*
X183433Y28492D01*
X183474Y28900D01*
X183487Y28933D01*
X183569Y29061D01*
X183654Y29188D01*
X183655Y29195D01*
X183659Y29201D01*
X183686Y29351D01*
X183716Y29500D01*
Y32673D01*
X183830Y33250D01*
Y34750D01*
X183710Y35355D01*
X183368Y35868D01*
X182855Y36210D01*
X182250Y36330D01*
X177750D01*
X177145Y36210D01*
X176632Y35868D01*
X176290Y35355D01*
X176284Y35326D01*
X151549D01*
X149558Y37316D01*
X149586Y37352D01*
X150115Y38629D01*
X150295Y40000D01*
X150115Y41370D01*
X149586Y42648D01*
X148744Y43744D01*
X147648Y44586D01*
X146370Y45115D01*
X145000Y45295D01*
X143630Y45115D01*
X142352Y44586D01*
X141256Y43744D01*
X140414Y42648D01*
X139885Y41370D01*
X139879Y41326D01*
X105549D01*
X103151Y43723D01*
X103313Y44112D01*
X103429Y45000D01*
X103313Y45888D01*
X102970Y46715D01*
X102425Y47425D01*
X101715Y47970D01*
X100888Y48313D01*
X100000Y48429D01*
X99112Y48313D01*
X98285Y47970D01*
X97575Y47425D01*
X97030Y46715D01*
X96688Y45888D01*
X96571Y45000D01*
X96688Y44112D01*
X97030Y43285D01*
X97575Y42575D01*
X98285Y42030D01*
X99112Y41688D01*
X100000Y41571D01*
X100888Y41688D01*
X101277Y41849D01*
X104063Y39063D01*
X104493Y38775D01*
X105000Y38675D01*
X139879D01*
X139885Y38629D01*
X140414Y37352D01*
X141256Y36256D01*
X142352Y35414D01*
X143630Y34885D01*
X145000Y34705D01*
X146370Y34885D01*
X147648Y35414D01*
X147684Y35442D01*
X150063Y33063D01*
X150493Y32775D01*
X151000Y32675D01*
X176284D01*
X176284Y32673D01*
Y29500D01*
X176314Y29351D01*
X176341Y29201D01*
X176345Y29195D01*
X176346Y29188D01*
X176431Y29061D01*
X176513Y28933D01*
X176526Y28900D01*
X176567Y28492D01*
X176530Y28338D01*
X176524Y28328D01*
X176523Y28327D01*
X176346Y28062D01*
X176284Y27750D01*
X176050Y27325D01*
X149100D01*
X148593Y27225D01*
X148481Y27150D01*
X139750D01*
Y16650D01*
X148375D01*
X149813Y15213D01*
X150243Y14925D01*
X150750Y14825D01*
X273650D01*
X274157Y14925D01*
X274587Y15213D01*
X280362Y20988D01*
X280450Y20900D01*
X284550D01*
X286600Y22950D01*
Y23674D01*
X295385D01*
Y22244D01*
X295447Y21932D01*
X295624Y21667D01*
X295889Y21490D01*
X296201Y21428D01*
X300925D01*
X301237Y21490D01*
X301502Y21667D01*
X301679Y21932D01*
X301741Y22244D01*
Y27756D01*
X301679Y28068D01*
X301502Y28333D01*
X301237Y28510D01*
X300925Y28572D01*
X296201D01*
X295889Y28510D01*
X295624Y28333D01*
X295447Y28068D01*
X295385Y27756D01*
Y26326D01*
X286600D01*
Y27050D01*
X284550Y29100D01*
X283825D01*
Y41274D01*
X284492Y41550D01*
X285317Y42183D01*
X285950Y43008D01*
X286348Y43969D01*
X286484Y45000D01*
X286348Y46031D01*
X286072Y46697D01*
X289549Y50174D01*
X311374D01*
X311553Y49674D01*
X310879Y49121D01*
X310154Y48238D01*
X309616Y47230D01*
X309284Y46137D01*
X309172Y45000D01*
X309284Y43863D01*
X309616Y42770D01*
X310154Y41762D01*
X310879Y40879D01*
X311762Y40154D01*
X312770Y39616D01*
X313863Y39284D01*
X315000Y39172D01*
X316137Y39284D01*
X317230Y39616D01*
X318238Y40154D01*
X319121Y40879D01*
X319846Y41762D01*
X320384Y42770D01*
X320716Y43863D01*
X320828Y45000D01*
X320743Y45868D01*
X321223Y46095D01*
X326556Y40762D01*
Y40529D01*
X326657Y40022D01*
X326944Y39592D01*
X337133Y29403D01*
X337563Y29116D01*
X338070Y29015D01*
X403141D01*
X403648Y29116D01*
X404078Y29403D01*
X419349Y44675D01*
X433784D01*
X433790Y44645D01*
X434132Y44133D01*
X434645Y43790D01*
X435250Y43670D01*
X439750D01*
X440355Y43790D01*
X440868Y44133D01*
X441210Y44645D01*
X441330Y45250D01*
Y46750D01*
X441216Y47327D01*
Y50500D01*
X441186Y50649D01*
X441159Y50799D01*
X441155Y50805D01*
X441154Y50812D01*
X441069Y50939D01*
X440987Y51067D01*
X440974Y51100D01*
X440933Y51508D01*
X440970Y51662D01*
X440976Y51672D01*
X440977Y51673D01*
X441154Y51938D01*
X441216Y52250D01*
X441216Y52250D01*
Y52673D01*
X441330Y53250D01*
Y54750D01*
X441210Y55355D01*
X440868Y55867D01*
X440355Y56210D01*
X439750Y56330D01*
X438026D01*
Y72583D01*
X439500D01*
Y75551D01*
X440000D01*
Y76051D01*
X442969D01*
Y78520D01*
X442556D01*
X442335Y78968D01*
X442418Y79076D01*
X442697Y79750D01*
X442792Y80472D01*
X442697Y81195D01*
X442418Y81869D01*
X441974Y82447D01*
X441752Y82618D01*
Y83248D01*
X441974Y83419D01*
X442418Y83998D01*
X442697Y84671D01*
X442792Y85394D01*
X442697Y86116D01*
X442418Y86790D01*
X441974Y87368D01*
X441752Y87539D01*
Y88169D01*
X441974Y88341D01*
X442418Y88919D01*
X442697Y89592D01*
X442792Y90315D01*
X442697Y91038D01*
X442418Y91711D01*
X441974Y92290D01*
X441752Y92461D01*
Y93091D01*
X441974Y93262D01*
X442418Y93840D01*
X442697Y94513D01*
X442792Y95236D01*
X442697Y95959D01*
X442418Y96632D01*
X441974Y97211D01*
X441752Y97382D01*
Y98012D01*
X441974Y98183D01*
X442418Y98761D01*
X442697Y99435D01*
X442792Y100157D01*
X442697Y100880D01*
X442418Y101554D01*
X441974Y102132D01*
X441752Y102303D01*
Y102933D01*
X441974Y103104D01*
X442418Y103683D01*
X442697Y104356D01*
X442792Y105079D01*
X442697Y105801D01*
X442418Y106475D01*
X441974Y107053D01*
X441752Y107224D01*
Y107854D01*
X441974Y108026D01*
X442418Y108604D01*
X442697Y109277D01*
X442792Y110000D01*
X442697Y110723D01*
X442418Y111396D01*
X441974Y111975D01*
X441752Y112145D01*
Y112776D01*
X441974Y112947D01*
X442418Y113525D01*
X442697Y114199D01*
X442792Y114921D01*
X442697Y115644D01*
X442418Y116317D01*
X441974Y116896D01*
X441752Y117067D01*
Y117697D01*
X441974Y117868D01*
X442418Y118446D01*
X442697Y119120D01*
X442792Y119843D01*
X442697Y120565D01*
X442418Y121239D01*
X441974Y121817D01*
X441396Y122261D01*
X440723Y122540D01*
X440000Y122635D01*
D02*
G37*
G36*
X302500Y48984D02*
X301469Y48848D01*
X300508Y48450D01*
X299683Y47817D01*
X299050Y46992D01*
X298652Y46031D01*
X298516Y45000D01*
X298652Y43969D01*
X299050Y43008D01*
X299683Y42183D01*
X300508Y41550D01*
X301469Y41152D01*
X302500Y41016D01*
X303531Y41152D01*
X304197Y41428D01*
X309770Y35856D01*
X310200Y35568D01*
X310707Y35467D01*
X314758D01*
X320664Y29562D01*
X320472Y29100D01*
X320450D01*
X318400Y27050D01*
Y26326D01*
X309615D01*
Y27756D01*
X309553Y28068D01*
X309376Y28333D01*
X309111Y28510D01*
X308799Y28572D01*
X304075D01*
X303763Y28510D01*
X303498Y28333D01*
X303321Y28068D01*
X303259Y27756D01*
Y22244D01*
X303321Y21932D01*
X303498Y21667D01*
X303763Y21490D01*
X304075Y21428D01*
X308799D01*
X309111Y21490D01*
X309376Y21667D01*
X309553Y21932D01*
X309615Y22244D01*
Y23674D01*
X318400D01*
Y22950D01*
X320450Y20900D01*
X324550D01*
X326600Y22950D01*
Y27050D01*
X324550Y29100D01*
X323826D01*
Y29600D01*
X323725Y30107D01*
X323437Y30537D01*
X316244Y37730D01*
X315814Y38018D01*
X315307Y38118D01*
X311256D01*
X306072Y43303D01*
X306348Y43969D01*
X306484Y45000D01*
X306348Y46031D01*
X305950Y46992D01*
X305317Y47817D01*
X304492Y48450D01*
X303531Y48848D01*
X302500Y48984D01*
D02*
G37*
G36*
X273000Y29120D02*
Y25500D01*
X276620D01*
X276543Y26083D01*
X276125Y27093D01*
X275460Y27959D01*
X274593Y28625D01*
X273583Y29043D01*
X273000Y29120D01*
D02*
G37*
G36*
X272000D02*
X271417Y29043D01*
X270407Y28625D01*
X269541Y27959D01*
X268875Y27093D01*
X268457Y26083D01*
X268380Y25500D01*
X272000D01*
Y29120D01*
D02*
G37*
G36*
X234075Y48996D02*
X230925D01*
X229999Y48812D01*
X229213Y48287D01*
X228688Y47501D01*
X228504Y46575D01*
Y43425D01*
X228688Y42499D01*
X229213Y41713D01*
X229999Y41188D01*
X230925Y41004D01*
X231174D01*
Y28726D01*
X230508Y28450D01*
X229683Y27817D01*
X229050Y26992D01*
X228652Y26031D01*
X228516Y25000D01*
X228652Y23969D01*
X229050Y23008D01*
X229683Y22183D01*
X230508Y21550D01*
X231469Y21152D01*
X232500Y21016D01*
X233531Y21152D01*
X234492Y21550D01*
X235317Y22183D01*
X235950Y23008D01*
X236348Y23969D01*
X236484Y25000D01*
X236348Y26031D01*
X235950Y26992D01*
X235317Y27817D01*
X234492Y28450D01*
X233825Y28726D01*
Y41004D01*
X234075D01*
X235001Y41188D01*
X235787Y41713D01*
X236312Y42499D01*
X236496Y43425D01*
Y46575D01*
X236312Y47501D01*
X235787Y48287D01*
X235001Y48812D01*
X234075Y48996D01*
D02*
G37*
G36*
X276620Y24500D02*
X273000D01*
Y20880D01*
X273583Y20957D01*
X274593Y21375D01*
X275460Y22040D01*
X276125Y22907D01*
X276543Y23917D01*
X276620Y24500D01*
D02*
G37*
G36*
X272000D02*
X268380D01*
X268457Y23917D01*
X268875Y22907D01*
X269541Y22040D01*
X270407Y21375D01*
X271417Y20957D01*
X272000Y20880D01*
Y24500D01*
D02*
G37*
%LPD*%
G36*
X440400Y52250D02*
X437500Y49350D01*
X434600Y52250D01*
Y54500D01*
X440400D01*
Y52250D01*
D02*
G37*
G36*
Y45500D02*
X434600D01*
Y50500D01*
X437500Y47700D01*
X440400Y50500D01*
Y45500D01*
D02*
G37*
G36*
X182900Y29500D02*
X180000Y32300D01*
X177100Y29500D01*
Y34500D01*
X182900D01*
Y29500D01*
D02*
G37*
G36*
Y27750D02*
Y25500D01*
X177100D01*
Y27750D01*
X180000Y30650D01*
X182900Y27750D01*
D02*
G37*
G36*
X300925Y22244D02*
X296201D01*
Y27756D01*
X300925D01*
Y22244D01*
D02*
G37*
G36*
X308799D02*
X304075D01*
Y27756D01*
X308799D01*
Y22244D01*
D02*
G37*
D15*
X436700Y54000D02*
Y78900D01*
X440000D01*
X400000Y55000D02*
X404500Y59500D01*
Y84343D01*
X440000Y119843D01*
X400000Y45000D02*
X420600Y65600D01*
Y75836D01*
X440000Y95236D01*
Y78900D02*
Y80472D01*
X436700Y54000D02*
X437500D01*
X105000Y40000D02*
X145000D01*
X100000Y45000D02*
X105000Y40000D01*
X145000D02*
X151000Y34000D01*
X180000D01*
X280000Y125000D02*
X297330Y107670D01*
X316522D01*
X323852Y100341D01*
X341930D01*
X344659Y103070D01*
Y106930D01*
X341018Y110572D02*
X344659Y106930D01*
X341018Y110572D02*
Y113982D01*
X340000Y115000D02*
X341018Y113982D01*
X290000Y125000D02*
X320000Y155000D01*
X340000D01*
X300000Y125000D02*
X308200Y116800D01*
X328200D01*
X340000Y105000D01*
X210000Y190000D02*
X313440D01*
X346659Y156781D01*
Y101659D02*
Y156781D01*
X340000Y95000D02*
X346659Y101659D01*
X232500Y25000D02*
Y45000D01*
X145000Y21900D02*
X149100Y26000D01*
X180000D01*
X145000Y21900D02*
X150750Y16150D01*
X273650D01*
X282500Y25000D01*
Y45000D01*
X289000Y51500D01*
X317692D01*
X327881Y41311D01*
Y40529D02*
Y41311D01*
Y40529D02*
X338070Y30341D01*
X403141D01*
X418800Y46000D01*
X437500D01*
X320217Y25000D02*
X322500D01*
Y29600D01*
X315307Y36793D02*
X322500Y29600D01*
X310707Y36793D02*
X315307D01*
X302500Y45000D02*
X310707Y36793D01*
X282500Y25000D02*
X298563D01*
X282421D02*
X282500D01*
X306831D02*
X320217D01*
D16*
X437500Y46000D02*
D03*
X180000Y26000D02*
D03*
X437500Y54000D02*
D03*
X180000Y34000D02*
D03*
D17*
X440000Y119843D02*
D03*
Y114921D02*
D03*
Y110000D02*
D03*
Y105079D02*
D03*
Y100157D02*
D03*
Y95236D02*
D03*
Y90315D02*
D03*
Y85394D02*
D03*
Y80472D02*
D03*
D18*
Y75551D02*
D03*
D25*
X145000Y21900D02*
D03*
D28*
X92126Y45000D02*
D03*
X100000D02*
D03*
D31*
X145000Y40000D02*
D03*
D33*
X35940Y103900D02*
D03*
X188300Y103850D02*
D03*
D34*
X442500Y257500D02*
D03*
Y12500D02*
D03*
X12500Y257500D02*
D03*
Y12500D02*
D03*
D35*
X342205Y248858D02*
D03*
X377205D02*
D03*
D36*
X367795D02*
D03*
X342205Y231142D02*
D03*
X367795D02*
D03*
X402795D02*
D03*
X377205D02*
D03*
X402795Y248858D02*
D03*
D37*
X282500Y25000D02*
D03*
X322500D02*
D03*
D38*
X302500Y45000D02*
D03*
X282500D02*
D03*
X240000Y125000D02*
D03*
X210000Y200000D02*
D03*
X272500Y45000D02*
D03*
Y25000D02*
D03*
X290000Y125000D02*
D03*
X210000Y190000D02*
D03*
Y180000D02*
D03*
X300000Y125000D02*
D03*
X280000D02*
D03*
X232500Y25000D02*
D03*
X262500Y45000D02*
D03*
X242500D02*
D03*
X252500D02*
D03*
X292500D02*
D03*
X270000Y125000D02*
D03*
X250000D02*
D03*
X260000D02*
D03*
D39*
X400000Y95000D02*
D03*
Y105000D02*
D03*
Y125000D02*
D03*
Y55000D02*
D03*
X340000Y75000D02*
D03*
X400000Y45000D02*
D03*
Y135000D02*
D03*
X340000Y55000D02*
D03*
X400000Y75000D02*
D03*
Y65000D02*
D03*
Y85000D02*
D03*
Y145000D02*
D03*
X340000Y35000D02*
D03*
Y45000D02*
D03*
Y65000D02*
D03*
Y85000D02*
D03*
Y95000D02*
D03*
Y105000D02*
D03*
Y115000D02*
D03*
Y125000D02*
D03*
Y135000D02*
D03*
Y145000D02*
D03*
X400000Y115000D02*
D03*
Y35000D02*
D03*
D40*
X215000Y130000D02*
D03*
Y260000D02*
D03*
X315000D02*
D03*
Y130000D02*
D03*
X220000Y45000D02*
D03*
X315000D02*
D03*
Y100000D02*
D03*
X220000D02*
D03*
D41*
X230000Y125000D02*
D03*
X232500Y45000D02*
D03*
D42*
X210000Y210000D02*
D03*
D43*
X340000Y155000D02*
D03*
X400000D02*
D03*
M02*
